<?xml version="1.0" encoding="UTF-8" standalone="no"?><svg xmlns="http://www.w3.org/2000/svg" xmlns:xlink="http://www.w3.org/1999/xlink" contentScriptType="application/ecmascript" contentStyleType="text/css" height="361px" preserveAspectRatio="none" style="width:1633px;height:361px;" version="1.1" viewBox="0 0 1633 361" width="1633px" zoomAndPan="magnify"><defs><filter height="300%" id="f5xynzb" width="300%" x="-1" y="-1"><feGaussianBlur result="blurOut" stdDeviation="2.0"/><feColorMatrix in="blurOut" result="blurOut2" type="matrix" values="0 0 0 0 0 0 0 0 0 0 0 0 0 0 0 0 0 0 .4 0"/><feOffset dx="4.0" dy="4.0" in="blurOut2" result="blurOut3"/><feBlend in="SourceGraphic" in2="blurOut3" mode="normal"/></filter></defs><g><!--cluster org.itquasar.multiverse.jagrosk.persistence--><polygon fill="#FFFFFF" filter="url(#f5xynzb)" points="230,147,582,147,589,169.2969,1567,169.2969,1567,354,230,354,230,147" style="stroke: #000000; stroke-width: 2.0;"/><line style="stroke: #000000; stroke-width: 2.0;" x1="230" x2="589" y1="169.2969" y2="169.2969"/><text fill="#000000" font-family="sans-serif" font-size="14" font-weight="bold" lengthAdjust="spacingAndGlyphs" textLength="346" x="234" y="161.9951">org.itquasar.multiverse.jagrosk.persistence</text><!--cluster org.itquasar.multiverse.jagrosk.persistence.jpa--><polygon fill="#FFFFFF" filter="url(#f5xynzb)" points="22,24,402,24,409,46.2969,820,46.2969,820,123,22,123,22,24" style="stroke: #000000; stroke-width: 2.0;"/><line style="stroke: #000000; stroke-width: 2.0;" x1="22" x2="409" y1="46.2969" y2="46.2969"/><text fill="#000000" font-family="sans-serif" font-size="14" font-weight="bold" lengthAdjust="spacingAndGlyphs" textLength="374" x="26" y="38.9951">org.itquasar.multiverse.jagrosk.persistence.jpa</text><!--cluster org.itquasar.multiverse.jagrosk.persistence.mem--><polygon fill="#FFFFFF" filter="url(#f5xynzb)" points="844,24,1239,24,1246,46.2969,1249,46.2969,1249,123,844,123,844,24" style="stroke: #000000; stroke-width: 2.0;"/><line style="stroke: #000000; stroke-width: 2.0;" x1="844" x2="1246" y1="46.2969" y2="46.2969"/><text fill="#000000" font-family="sans-serif" font-size="14" font-weight="bold" lengthAdjust="spacingAndGlyphs" textLength="389" x="848" y="38.9951">org.itquasar.multiverse.jagrosk.persistence.mem</text><!--class org.itquasar.multiverse.jagrosk.persistence.Transaction--><rect fill="#FEFECE" filter="url(#f5xynzb)" height="48" style="stroke: #A80036; stroke-width: 1.5;" width="105" x="582.5" y="182"/><ellipse cx="597.5" cy="198" fill="#A9DCDF" rx="11" ry="11" style="stroke: #A80036; stroke-width: 1.0;"/><path d="M597.6094,193.3438 L596.4531,198.4219 L598.7813,198.4219 L597.6094,193.3438 Z M596.125,191.1094 L599.1094,191.1094 L602.4688,203.5 L600.0156,203.5 L599.25,200.4375 L595.9688,200.4375 L595.2188,203.5 L592.7813,203.5 L596.125,191.1094 Z "/><text fill="#000000" font-family="sans-serif" font-size="12" font-style="italic" lengthAdjust="spacingAndGlyphs" textLength="73" x="611.5" y="202.1543">Transaction</text><line style="stroke: #A80036; stroke-width: 1.5;" x1="583.5" x2="686.5" y1="214" y2="214"/><line style="stroke: #A80036; stroke-width: 1.5;" x1="583.5" x2="686.5" y1="222" y2="222"/><!--class org.itquasar.multiverse.jagrosk.persistence.JagroskPersistenceFactory--><rect fill="#FEFECE" filter="url(#f5xynzb)" height="48" style="stroke: #A80036; stroke-width: 1.5;" width="198" x="907" y="182"/><ellipse cx="922" cy="198" fill="#ADD1B2" rx="11" ry="11" style="stroke: #A80036; stroke-width: 1.0;"/><path d="M924.9688,203.6406 Q924.3906,203.9375 923.75,204.0859 Q923.1094,204.2344 922.4063,204.2344 Q919.9063,204.2344 918.5859,202.5859 Q917.2656,200.9375 917.2656,197.8125 Q917.2656,194.6875 918.5859,193.0313 Q919.9063,191.375 922.4063,191.375 Q923.1094,191.375 923.7578,191.5313 Q924.4063,191.6875 924.9688,191.9844 L924.9688,194.7031 Q924.3438,194.125 923.75,193.8516 Q923.1563,193.5781 922.5313,193.5781 Q921.1875,193.5781 920.5,194.6484 Q919.8125,195.7188 919.8125,197.8125 Q919.8125,199.9063 920.5,200.9766 Q921.1875,202.0469 922.5313,202.0469 Q923.1563,202.0469 923.75,201.7734 Q924.3438,201.5 924.9688,200.9219 L924.9688,203.6406 Z "/><text fill="#000000" font-family="sans-serif" font-size="12" lengthAdjust="spacingAndGlyphs" textLength="166" x="936" y="202.1543">JagroskPersistenceFactory</text><line style="stroke: #A80036; stroke-width: 1.5;" x1="908" x2="1104" y1="214" y2="214"/><line style="stroke: #A80036; stroke-width: 1.5;" x1="908" x2="1104" y1="222" y2="222"/><!--class org.itquasar.multiverse.jagrosk.persistence.OneShotRepository--><rect fill="#FEFECE" filter="url(#f5xynzb)" height="48" style="stroke: #A80036; stroke-width: 1.5;" width="152" x="246" y="182"/><ellipse cx="261" cy="198" fill="#ADD1B2" rx="11" ry="11" style="stroke: #A80036; stroke-width: 1.0;"/><path d="M263.9688,203.6406 Q263.3906,203.9375 262.75,204.0859 Q262.1094,204.2344 261.4063,204.2344 Q258.9063,204.2344 257.5859,202.5859 Q256.2656,200.9375 256.2656,197.8125 Q256.2656,194.6875 257.5859,193.0313 Q258.9063,191.375 261.4063,191.375 Q262.1094,191.375 262.7578,191.5313 Q263.4063,191.6875 263.9688,191.9844 L263.9688,194.7031 Q263.3438,194.125 262.75,193.8516 Q262.1563,193.5781 261.5313,193.5781 Q260.1875,193.5781 259.5,194.6484 Q258.8125,195.7188 258.8125,197.8125 Q258.8125,199.9063 259.5,200.9766 Q260.1875,202.0469 261.5313,202.0469 Q262.1563,202.0469 262.75,201.7734 Q263.3438,201.5 263.9688,200.9219 L263.9688,203.6406 Z "/><text fill="#000000" font-family="sans-serif" font-size="12" lengthAdjust="spacingAndGlyphs" textLength="120" x="275" y="202.1543">OneShotRepository</text><line style="stroke: #A80036; stroke-width: 1.5;" x1="247" x2="397" y1="214" y2="214"/><line style="stroke: #A80036; stroke-width: 1.5;" x1="247" x2="397" y1="222" y2="222"/><!--class org.itquasar.multiverse.jagrosk.persistence.JagroskPersistenceType--><rect fill="#FEFECE" filter="url(#f5xynzb)" height="48" style="stroke: #A80036; stroke-width: 1.5;" width="181" x="1140.5" y="182"/><ellipse cx="1155.5" cy="198" fill="#EB937F" rx="11" ry="11" style="stroke: #A80036; stroke-width: 1.0;"/><path d="M1159.6094,204 L1151.8906,204 L1151.8906,191.6094 L1159.6094,191.6094 L1159.6094,193.7656 L1154.3438,193.7656 L1154.3438,196.4375 L1159.1094,196.4375 L1159.1094,198.5938 L1154.3438,198.5938 L1154.3438,201.8438 L1159.6094,201.8438 L1159.6094,204 Z "/><text fill="#000000" font-family="sans-serif" font-size="12" lengthAdjust="spacingAndGlyphs" textLength="149" x="1169.5" y="202.1543">JagroskPersistenceType</text><line style="stroke: #A80036; stroke-width: 1.5;" x1="1141.5" x2="1320.5" y1="214" y2="214"/><line style="stroke: #A80036; stroke-width: 1.5;" x1="1141.5" x2="1320.5" y1="222" y2="222"/><!--class org.itquasar.multiverse.jagrosk.persistence.JagroskEntity--><rect fill="#FEFECE" filter="url(#f5xynzb)" height="48" style="stroke: #A80036; stroke-width: 1.5;" width="114" x="433" y="182"/><ellipse cx="448" cy="198" fill="#B4A7E5" rx="11" ry="11" style="stroke: #A80036; stroke-width: 1.0;"/><path d="M443.9219,193.7656 L443.9219,191.6094 L451.3125,191.6094 L451.3125,193.7656 L448.8438,193.7656 L448.8438,201.8438 L451.3125,201.8438 L451.3125,204 L443.9219,204 L443.9219,201.8438 L446.3906,201.8438 L446.3906,193.7656 L443.9219,193.7656 Z "/><text fill="#000000" font-family="sans-serif" font-size="12" font-style="italic" lengthAdjust="spacingAndGlyphs" textLength="82" x="462" y="202.1543">JagroskEntity</text><line style="stroke: #A80036; stroke-width: 1.5;" x1="434" x2="546" y1="214" y2="214"/><line style="stroke: #A80036; stroke-width: 1.5;" x1="434" x2="546" y1="222" y2="222"/><!--class org.itquasar.multiverse.jagrosk.persistence.JagroskPersistence--><rect fill="#FEFECE" filter="url(#f5xynzb)" height="48" style="stroke: #A80036; stroke-width: 1.5;" width="149" x="722.5" y="182"/><ellipse cx="737.5" cy="198" fill="#B4A7E5" rx="11" ry="11" style="stroke: #A80036; stroke-width: 1.0;"/><path d="M733.4219,193.7656 L733.4219,191.6094 L740.8125,191.6094 L740.8125,193.7656 L738.3438,193.7656 L738.3438,201.8438 L740.8125,201.8438 L740.8125,204 L733.4219,204 L733.4219,201.8438 L735.8906,201.8438 L735.8906,193.7656 L733.4219,193.7656 Z "/><text fill="#000000" font-family="sans-serif" font-size="12" font-style="italic" lengthAdjust="spacingAndGlyphs" textLength="117" x="751.5" y="202.1543">JagroskPersistence</text><line style="stroke: #A80036; stroke-width: 1.5;" x1="723.5" x2="870.5" y1="214" y2="214"/><line style="stroke: #A80036; stroke-width: 1.5;" x1="723.5" x2="870.5" y1="222" y2="222"/><!--class org.itquasar.multiverse.jagrosk.persistence.JagroskPersistenceOptions--><rect fill="#FEFECE" filter="url(#f5xynzb)" height="48" style="stroke: #A80036; stroke-width: 1.5;" width="195" x="1356.5" y="182"/><ellipse cx="1371.5" cy="198" fill="#B4A7E5" rx="11" ry="11" style="stroke: #A80036; stroke-width: 1.0;"/><path d="M1367.4219,193.7656 L1367.4219,191.6094 L1374.8125,191.6094 L1374.8125,193.7656 L1372.3438,193.7656 L1372.3438,201.8438 L1374.8125,201.8438 L1374.8125,204 L1367.4219,204 L1367.4219,201.8438 L1369.8906,201.8438 L1369.8906,193.7656 L1367.4219,193.7656 Z "/><text fill="#000000" font-family="sans-serif" font-size="12" font-style="italic" lengthAdjust="spacingAndGlyphs" textLength="163" x="1385.5" y="202.1543">JagroskPersistenceOptions</text><line style="stroke: #A80036; stroke-width: 1.5;" x1="1357.5" x2="1550.5" y1="214" y2="214"/><line style="stroke: #A80036; stroke-width: 1.5;" x1="1357.5" x2="1550.5" y1="222" y2="222"/><!--class org.itquasar.multiverse.jagrosk.persistence.JagroskPredicate--><rect fill="#FEFECE" filter="url(#f5xynzb)" height="48" style="stroke: #A80036; stroke-width: 1.5;" width="137" x="1162.5" y="290"/><ellipse cx="1177.5" cy="306" fill="#B4A7E5" rx="11" ry="11" style="stroke: #A80036; stroke-width: 1.0;"/><path d="M1173.4219,301.7656 L1173.4219,299.6094 L1180.8125,299.6094 L1180.8125,301.7656 L1178.3438,301.7656 L1178.3438,309.8438 L1180.8125,309.8438 L1180.8125,312 L1173.4219,312 L1173.4219,309.8438 L1175.8906,309.8438 L1175.8906,301.7656 L1173.4219,301.7656 Z "/><text fill="#000000" font-family="sans-serif" font-size="12" font-style="italic" lengthAdjust="spacingAndGlyphs" textLength="105" x="1191.5" y="310.1543">JagroskPredicate</text><line style="stroke: #A80036; stroke-width: 1.5;" x1="1163.5" x2="1298.5" y1="322" y2="322"/><line style="stroke: #A80036; stroke-width: 1.5;" x1="1163.5" x2="1298.5" y1="330" y2="330"/><!--class org.itquasar.multiverse.jagrosk.persistence.Repository--><rect fill="#FEFECE" filter="url(#f5xynzb)" height="48" style="stroke: #A80036; stroke-width: 1.5;" width="98" x="260" y="290"/><ellipse cx="275" cy="306" fill="#B4A7E5" rx="11" ry="11" style="stroke: #A80036; stroke-width: 1.0;"/><path d="M270.9219,301.7656 L270.9219,299.6094 L278.3125,299.6094 L278.3125,301.7656 L275.8438,301.7656 L275.8438,309.8438 L278.3125,309.8438 L278.3125,312 L270.9219,312 L270.9219,309.8438 L273.3906,309.8438 L273.3906,301.7656 L270.9219,301.7656 Z "/><text fill="#000000" font-family="sans-serif" font-size="12" font-style="italic" lengthAdjust="spacingAndGlyphs" textLength="66" x="289" y="310.1543">Repository</text><line style="stroke: #A80036; stroke-width: 1.5;" x1="261" x2="357" y1="322" y2="322"/><line style="stroke: #A80036; stroke-width: 1.5;" x1="261" x2="357" y1="330" y2="330"/><!--class org.itquasar.multiverse.jagrosk.persistence.jpa.JPAOneShotRepository--><rect fill="#FEFECE" filter="url(#f5xynzb)" height="48" style="stroke: #A80036; stroke-width: 1.5;" width="171" x="190.5" y="59"/><ellipse cx="205.5" cy="75" fill="#ADD1B2" rx="11" ry="11" style="stroke: #A80036; stroke-width: 1.0;"/><path d="M208.4688,80.6406 Q207.8906,80.9375 207.25,81.0859 Q206.6094,81.2344 205.9063,81.2344 Q203.4063,81.2344 202.0859,79.5859 Q200.7656,77.9375 200.7656,74.8125 Q200.7656,71.6875 202.0859,70.0313 Q203.4063,68.375 205.9063,68.375 Q206.6094,68.375 207.2578,68.5313 Q207.9063,68.6875 208.4688,68.9844 L208.4688,71.7031 Q207.8438,71.125 207.25,70.8516 Q206.6563,70.5781 206.0313,70.5781 Q204.6875,70.5781 204,71.6484 Q203.3125,72.7188 203.3125,74.8125 Q203.3125,76.9063 204,77.9766 Q204.6875,79.0469 206.0313,79.0469 Q206.6563,79.0469 207.25,78.7734 Q207.8438,78.5 208.4688,77.9219 L208.4688,80.6406 Z "/><text fill="#000000" font-family="sans-serif" font-size="12" lengthAdjust="spacingAndGlyphs" textLength="139" x="219.5" y="79.1543">JPAOneShotRepository</text><line style="stroke: #A80036; stroke-width: 1.5;" x1="191.5" x2="360.5" y1="91" y2="91"/><line style="stroke: #A80036; stroke-width: 1.5;" x1="191.5" x2="360.5" y1="99" y2="99"/><!--class org.itquasar.multiverse.jagrosk.persistence.jpa.JPAPersistence--><rect fill="#FEFECE" filter="url(#f5xynzb)" height="48" style="stroke: #A80036; stroke-width: 1.5;" width="125" x="678.5" y="59"/><ellipse cx="693.5" cy="75" fill="#ADD1B2" rx="11" ry="11" style="stroke: #A80036; stroke-width: 1.0;"/><path d="M696.4688,80.6406 Q695.8906,80.9375 695.25,81.0859 Q694.6094,81.2344 693.9063,81.2344 Q691.4063,81.2344 690.0859,79.5859 Q688.7656,77.9375 688.7656,74.8125 Q688.7656,71.6875 690.0859,70.0313 Q691.4063,68.375 693.9063,68.375 Q694.6094,68.375 695.2578,68.5313 Q695.9063,68.6875 696.4688,68.9844 L696.4688,71.7031 Q695.8438,71.125 695.25,70.8516 Q694.6563,70.5781 694.0313,70.5781 Q692.6875,70.5781 692,71.6484 Q691.3125,72.7188 691.3125,74.8125 Q691.3125,76.9063 692,77.9766 Q692.6875,79.0469 694.0313,79.0469 Q694.6563,79.0469 695.25,78.7734 Q695.8438,78.5 696.4688,77.9219 L696.4688,80.6406 Z "/><text fill="#000000" font-family="sans-serif" font-size="12" lengthAdjust="spacingAndGlyphs" textLength="93" x="707.5" y="79.1543">JPAPersistence</text><line style="stroke: #A80036; stroke-width: 1.5;" x1="679.5" x2="802.5" y1="91" y2="91"/><line style="stroke: #A80036; stroke-width: 1.5;" x1="679.5" x2="802.5" y1="99" y2="99"/><!--class org.itquasar.multiverse.jagrosk.persistence.jpa.JPAQuery--><rect fill="#FEFECE" filter="url(#f5xynzb)" height="48" style="stroke: #A80036; stroke-width: 1.5;" width="87" x="396.5" y="59"/><ellipse cx="411.5" cy="75" fill="#ADD1B2" rx="11" ry="11" style="stroke: #A80036; stroke-width: 1.0;"/><path d="M414.4688,80.6406 Q413.8906,80.9375 413.25,81.0859 Q412.6094,81.2344 411.9063,81.2344 Q409.4063,81.2344 408.0859,79.5859 Q406.7656,77.9375 406.7656,74.8125 Q406.7656,71.6875 408.0859,70.0313 Q409.4063,68.375 411.9063,68.375 Q412.6094,68.375 413.2578,68.5313 Q413.9063,68.6875 414.4688,68.9844 L414.4688,71.7031 Q413.8438,71.125 413.25,70.8516 Q412.6563,70.5781 412.0313,70.5781 Q410.6875,70.5781 410,71.6484 Q409.3125,72.7188 409.3125,74.8125 Q409.3125,76.9063 410,77.9766 Q410.6875,79.0469 412.0313,79.0469 Q412.6563,79.0469 413.25,78.7734 Q413.8438,78.5 414.4688,77.9219 L414.4688,80.6406 Z "/><text fill="#000000" font-family="sans-serif" font-size="12" lengthAdjust="spacingAndGlyphs" textLength="55" x="425.5" y="79.1543">JPAQuery</text><line style="stroke: #A80036; stroke-width: 1.5;" x1="397.5" x2="482.5" y1="91" y2="91"/><line style="stroke: #A80036; stroke-width: 1.5;" x1="397.5" x2="482.5" y1="99" y2="99"/><!--class org.itquasar.multiverse.jagrosk.persistence.jpa.JPARepository--><rect fill="#FEFECE" filter="url(#f5xynzb)" height="48" style="stroke: #A80036; stroke-width: 1.5;" width="117" x="38.5" y="59"/><ellipse cx="53.5" cy="75" fill="#ADD1B2" rx="11" ry="11" style="stroke: #A80036; stroke-width: 1.0;"/><path d="M56.4688,80.6406 Q55.8906,80.9375 55.25,81.0859 Q54.6094,81.2344 53.9063,81.2344 Q51.4063,81.2344 50.0859,79.5859 Q48.7656,77.9375 48.7656,74.8125 Q48.7656,71.6875 50.0859,70.0313 Q51.4063,68.375 53.9063,68.375 Q54.6094,68.375 55.2578,68.5313 Q55.9063,68.6875 56.4688,68.9844 L56.4688,71.7031 Q55.8438,71.125 55.25,70.8516 Q54.6563,70.5781 54.0313,70.5781 Q52.6875,70.5781 52,71.6484 Q51.3125,72.7188 51.3125,74.8125 Q51.3125,76.9063 52,77.9766 Q52.6875,79.0469 54.0313,79.0469 Q54.6563,79.0469 55.25,78.7734 Q55.8438,78.5 56.4688,77.9219 L56.4688,80.6406 Z "/><text fill="#000000" font-family="sans-serif" font-size="12" lengthAdjust="spacingAndGlyphs" textLength="85" x="67.5" y="79.1543">JPARepository</text><line style="stroke: #A80036; stroke-width: 1.5;" x1="39.5" x2="154.5" y1="91" y2="91"/><line style="stroke: #A80036; stroke-width: 1.5;" x1="39.5" x2="154.5" y1="99" y2="99"/><!--class org.itquasar.multiverse.jagrosk.persistence.jpa.JPATransaction--><rect fill="#FEFECE" filter="url(#f5xynzb)" height="48" style="stroke: #A80036; stroke-width: 1.5;" width="125" x="518.5" y="59"/><ellipse cx="533.5" cy="75" fill="#ADD1B2" rx="11" ry="11" style="stroke: #A80036; stroke-width: 1.0;"/><path d="M536.4688,80.6406 Q535.8906,80.9375 535.25,81.0859 Q534.6094,81.2344 533.9063,81.2344 Q531.4063,81.2344 530.0859,79.5859 Q528.7656,77.9375 528.7656,74.8125 Q528.7656,71.6875 530.0859,70.0313 Q531.4063,68.375 533.9063,68.375 Q534.6094,68.375 535.2578,68.5313 Q535.9063,68.6875 536.4688,68.9844 L536.4688,71.7031 Q535.8438,71.125 535.25,70.8516 Q534.6563,70.5781 534.0313,70.5781 Q532.6875,70.5781 532,71.6484 Q531.3125,72.7188 531.3125,74.8125 Q531.3125,76.9063 532,77.9766 Q532.6875,79.0469 534.0313,79.0469 Q534.6563,79.0469 535.25,78.7734 Q535.8438,78.5 536.4688,77.9219 L536.4688,80.6406 Z "/><text fill="#000000" font-family="sans-serif" font-size="12" lengthAdjust="spacingAndGlyphs" textLength="93" x="547.5" y="79.1543">JPATransaction</text><line style="stroke: #A80036; stroke-width: 1.5;" x1="519.5" x2="642.5" y1="91" y2="91"/><line style="stroke: #A80036; stroke-width: 1.5;" x1="519.5" x2="642.5" y1="99" y2="99"/><!--class org.itquasar.multiverse.jagrosk.persistence.mem.MemoryPersistence--><rect fill="#FEFECE" filter="url(#f5xynzb)" height="48" style="stroke: #A80036; stroke-width: 1.5;" width="154" x="860" y="59"/><ellipse cx="875" cy="75" fill="#ADD1B2" rx="11" ry="11" style="stroke: #A80036; stroke-width: 1.0;"/><path d="M877.9688,80.6406 Q877.3906,80.9375 876.75,81.0859 Q876.1094,81.2344 875.4063,81.2344 Q872.9063,81.2344 871.5859,79.5859 Q870.2656,77.9375 870.2656,74.8125 Q870.2656,71.6875 871.5859,70.0313 Q872.9063,68.375 875.4063,68.375 Q876.1094,68.375 876.7578,68.5313 Q877.4063,68.6875 877.9688,68.9844 L877.9688,71.7031 Q877.3438,71.125 876.75,70.8516 Q876.1563,70.5781 875.5313,70.5781 Q874.1875,70.5781 873.5,71.6484 Q872.8125,72.7188 872.8125,74.8125 Q872.8125,76.9063 873.5,77.9766 Q874.1875,79.0469 875.5313,79.0469 Q876.1563,79.0469 876.75,78.7734 Q877.3438,78.5 877.9688,77.9219 L877.9688,80.6406 Z "/><text fill="#000000" font-family="sans-serif" font-size="12" lengthAdjust="spacingAndGlyphs" textLength="122" x="889" y="79.1543">MemoryPersistence</text><line style="stroke: #A80036; stroke-width: 1.5;" x1="861" x2="1013" y1="91" y2="91"/><line style="stroke: #A80036; stroke-width: 1.5;" x1="861" x2="1013" y1="99" y2="99"/><!--class org.itquasar.multiverse.jagrosk.persistence.mem.MemoryRepository--><rect fill="#FEFECE" filter="url(#f5xynzb)" height="48" style="stroke: #A80036; stroke-width: 1.5;" width="146" x="1049" y="59"/><ellipse cx="1064" cy="75" fill="#ADD1B2" rx="11" ry="11" style="stroke: #A80036; stroke-width: 1.0;"/><path d="M1066.9688,80.6406 Q1066.3906,80.9375 1065.75,81.0859 Q1065.1094,81.2344 1064.4063,81.2344 Q1061.9063,81.2344 1060.5859,79.5859 Q1059.2656,77.9375 1059.2656,74.8125 Q1059.2656,71.6875 1060.5859,70.0313 Q1061.9063,68.375 1064.4063,68.375 Q1065.1094,68.375 1065.7578,68.5313 Q1066.4063,68.6875 1066.9688,68.9844 L1066.9688,71.7031 Q1066.3438,71.125 1065.75,70.8516 Q1065.1563,70.5781 1064.5313,70.5781 Q1063.1875,70.5781 1062.5,71.6484 Q1061.8125,72.7188 1061.8125,74.8125 Q1061.8125,76.9063 1062.5,77.9766 Q1063.1875,79.0469 1064.5313,79.0469 Q1065.1563,79.0469 1065.75,78.7734 Q1066.3438,78.5 1066.9688,77.9219 L1066.9688,80.6406 Z "/><text fill="#000000" font-family="sans-serif" font-size="12" lengthAdjust="spacingAndGlyphs" textLength="114" x="1078" y="79.1543">MemoryRepository</text><line style="stroke: #A80036; stroke-width: 1.5;" x1="1050" x2="1194" y1="91" y2="91"/><line style="stroke: #A80036; stroke-width: 1.5;" x1="1050" x2="1194" y1="99" y2="99"/><path d="M972.404,181.996 C949.776,167.545 918.741,149.68 889,139 C869.882,132.134 863.394,137.042 844,131 C825.817,125.335 806.644,117.226 789.834,109.334 " fill="none" style="stroke: #A80036; stroke-width: 1.0; stroke-dasharray: 7.0,7.0;"/><polygon fill="#A80036" points="785.158,107.116,791.575,114.5874,789.6755,109.259,795.0038,107.3594,785.158,107.116" style="stroke: #A80036; stroke-width: 1.0;"/><path d="M992.673,181.63 C981.228,161.56 964.715,132.602 952.645,111.436 " fill="none" style="stroke: #A80036; stroke-width: 1.0; stroke-dasharray: 7.0,7.0;"/><polygon fill="#A80036" points="950.141,107.044,951.1218,116.8439,952.6166,111.3881,958.0724,112.8829,950.141,107.044" style="stroke: #A80036; stroke-width: 1.0;"/><path d="M319.179,230 C317.758,241.588 315.987,256.029 314.322,269.601 " fill="none" style="stroke: #A80036; stroke-width: 1.0;"/><polygon fill="none" points="321.243,270.6793,311.86,289.6784,307.347,268.975,321.243,270.6793" style="stroke: #A80036; stroke-width: 1.0;"/><path d="M284.761,107.044 C290.733,122.755 298.818,144.021 305.928,162.725 " fill="none" style="stroke: #A80036; stroke-width: 1.0;"/><polygon fill="none" points="312.551,160.448,313.115,181.63,299.465,165.423,312.551,160.448" style="stroke: #A80036; stroke-width: 1.0;"/><path d="M321.061,107.041 C338.786,115.443 359.524,124.473 379,131 C394.541,136.208 400.388,131.575 415,139 C434.081,148.696 452.193,164.38 465.837,178.026 " fill="none" style="stroke: #A80036; stroke-width: 1.0; stroke-dasharray: 7.0,7.0;"/><polygon fill="#A80036" points="469.563,181.814,466.1019,172.5933,466.0562,178.25,460.3995,178.2043,469.563,181.814" style="stroke: #A80036; stroke-width: 1.0;"/><path d="M720.813,107.044 C703.17,127.184 677.528,156.453 658.872,177.75 " fill="none" style="stroke: #A80036; stroke-width: 1.0; stroke-dasharray: 7.0,7.0;"/><polygon fill="#A80036" points="655.473,181.63,664.4125,177.4966,658.768,177.8692,658.3953,172.2247,655.473,181.63" style="stroke: #A80036; stroke-width: 1.0;"/><path d="M709.099,107.197 C695.036,116.211 677.89,125.643 661,131 C620.189,143.945 604.395,122.233 565,139 C544.869,147.568 526.367,163.717 512.777,177.895 " fill="none" style="stroke: #A80036; stroke-width: 1.0; stroke-dasharray: 7.0,7.0;"/><polygon fill="#A80036" points="509.077,181.834,518.1542,178.0123,512.5001,178.1895,512.3229,172.5354,509.077,181.834" style="stroke: #A80036; stroke-width: 1.0;"/><path d="M751.665,107.044 C760.87,126.933 774.196,155.726 784.019,176.951 " fill="none" style="stroke: #A80036; stroke-width: 1.0; stroke-dasharray: 7.0,7.0;"/><polygon fill="#A80036" points="786.184,181.63,786.0337,171.7823,784.0838,177.0925,778.7736,175.1426,786.184,181.63" style="stroke: #A80036; stroke-width: 1.0;"/><path d="M710.022,107.236 C695.847,116.496 678.364,126.104 661,131 C649.422,134.265 236.427,130.415 228,139 C199.667,167.861 212.751,192.541 228,230 C237.028,252.177 255.148,271.661 271.964,286.1682 " fill="none" style="stroke: #A80036; stroke-width: 1.0; stroke-dasharray: 7.0,7.0;"/><polygon fill="#A80036" points="276.205,289.7478,271.9084,280.8856,272.3845,286.5224,266.7477,286.9984,276.205,289.7478" style="stroke: #A80036; stroke-width: 1.0;"/><path d="M449.522,107.044 C457.741,126.933 469.639,155.726 478.409,176.951 " fill="none" style="stroke: #A80036; stroke-width: 1.0; stroke-dasharray: 7.0,7.0;"/><polygon fill="#A80036" points="480.343,181.63,480.6021,171.7846,478.4332,177.0091,473.2087,174.8402,480.343,181.63" style="stroke: #A80036; stroke-width: 1.0;"/><path d="M126.3,107.113 C139.741,116.35 156.367,125.974 173,131 C224.507,146.564 364.978,119.174 415,139 C435.487,147.12 454.112,163.437 467.677,177.815 " fill="none" style="stroke: #A80036; stroke-width: 1.0; stroke-dasharray: 7.0,7.0;"/><polygon fill="#A80036" points="471.367,181.81,468.1982,172.4848,467.9742,178.1372,462.3218,177.9132,471.367,181.81" style="stroke: #A80036; stroke-width: 1.0;"/><path d="M89.3924,107.072 C80.7379,137.974 70.8243,193.17 96,230 C127.943,276.7299 190.407,297.1533 239.469,306.0777 " fill="none" style="stroke: #A80036; stroke-width: 1.0;"/><polygon fill="none" points="240.88,299.2136,259.547,309.2416,238.701,313.043,240.88,299.2136" style="stroke: #A80036; stroke-width: 1.0;"/><path d="M591.284,107.044 C598.37,122.922 607.989,144.474 616.399,163.321 " fill="none" style="stroke: #A80036; stroke-width: 1.0;"/><polygon fill="none" points="622.812,160.513,624.57,181.63,610.027,166.219,622.812,160.513" style="stroke: #A80036; stroke-width: 1.0;"/><path d="M563.669,107.044 C548.586,127.1 526.693,156.211 510.694,177.484 " fill="none" style="stroke: #A80036; stroke-width: 1.0; stroke-dasharray: 7.0,7.0;"/><polygon fill="#A80036" points="507.576,181.63,516.1818,176.8403,510.5808,177.6336,509.7875,172.0326,507.576,181.63" style="stroke: #A80036; stroke-width: 1.0;"/><path d="M550.009,107.191 C535.832,116.442 518.351,126.056 501,131 C483.15,136.086 179.966,125.719 167,139 C138.746,167.939 146.872,194.92 167,230 C185.818,262.796 223.161,283.8713 254.829,296.5761 " fill="none" style="stroke: #A80036; stroke-width: 1.0; stroke-dasharray: 7.0,7.0;"/><polygon fill="#A80036" points="259.86,298.5438,252.9356,291.5401,255.2036,296.7224,250.0213,298.9904,259.86,298.5438" style="stroke: #A80036; stroke-width: 1.0;"/><path d="M889.424,107.043 C868.597,116.09 843.575,125.586 820,131 C795.032,136.733 728.466,128.725 705,139 C685.7,147.451 668.424,163.598 655.864,177.805 " fill="none" style="stroke: #A80036; stroke-width: 1.0; stroke-dasharray: 7.0,7.0;"/><polygon fill="#A80036" points="652.449,181.752,661.3625,177.5627,655.7203,177.9707,655.3123,172.3286,652.449,181.752" style="stroke: #A80036; stroke-width: 1.0;"/><path d="M890.365,107.108 C869.389,116.344 843.995,125.969 820,131 C792.256,136.817 591.362,128.577 565,139 C544.506,147.103 525.881,163.42 512.317,177.801 " fill="none" style="stroke: #A80036; stroke-width: 1.0; stroke-dasharray: 7.0,7.0;"/><polygon fill="#A80036" points="508.629,181.798,517.6726,177.8976,512.0203,178.1239,511.794,172.4715,508.629,181.798" style="stroke: #A80036; stroke-width: 1.0;"/><path d="M910.338,107.044 C890.323,124.343 862.515,148.377 839.453,168.308 " fill="none" style="stroke: #A80036; stroke-width: 1.0;"/><polygon fill="none" points="843.749,173.848,824.04,181.63,834.594,163.256,843.749,173.848" style="stroke: #A80036; stroke-width: 1.0;"/><path d="M973.474,107.038 C990.307,116.384 1010.97,126.114 1031,131 C1045.52,134.542 1558.51,128.353 1569,139 C1597.39,167.81 1596.64,200.477 1569,230 C1527.17,274.6783 599.216,304.5755 363.211,311.4745 " fill="none" style="stroke: #A80036; stroke-width: 1.0; stroke-dasharray: 7.0,7.0;"/><polygon fill="#A80036" points="358.1,311.6235,367.2127,315.3595,363.0979,311.4778,366.9796,307.3629,358.1,311.6235" style="stroke: #A80036; stroke-width: 1.0;"/><path d="M1086.78,107.014 C1070.5,116.355 1050.48,126.088 1031,131 C980.786,143.659 613.292,120.302 565,139 C544.449,146.957 525.824,163.273 512.274,177.691 " fill="none" style="stroke: #A80036; stroke-width: 1.0; stroke-dasharray: 7.0,7.0;"/><polygon fill="#A80036" points="508.59,181.698,517.6257,177.7794,511.9739,178.017,511.7362,172.3652,508.59,181.698" style="stroke: #A80036; stroke-width: 1.0;"/><path d="M1195.17,87.058 C1323.51,93.179 1578.22,108.994 1605,139 C1631.93,169.173 1632.67,200.502 1605,230 C1562.71,275.0819 641.64,303.8385 378.581,311.1532 " fill="none" style="stroke: #A80036; stroke-width: 1.0;"/><polygon fill="none" points="378.523,318.1573,358.338,311.7097,378.138,304.1626,378.523,318.1573" style="stroke: #A80036; stroke-width: 1.0;"/></g></svg>