<?xml version="1.0" encoding="UTF-8" standalone="no"?><svg xmlns="http://www.w3.org/2000/svg" xmlns:xlink="http://www.w3.org/1999/xlink" contentScriptType="application/ecmascript" contentStyleType="text/css" height="361px" preserveAspectRatio="none" style="width:1585px;height:361px;" version="1.1" viewBox="0 0 1585 361" width="1585px" zoomAndPan="magnify"><defs><filter height="300%" id="fokddh5" width="300%" x="-1" y="-1"><feGaussianBlur result="blurOut" stdDeviation="2.0"/><feColorMatrix in="blurOut" result="blurOut2" type="matrix" values="0 0 0 0 0 0 0 0 0 0 0 0 0 0 0 0 0 0 .4 0"/><feOffset dx="4.0" dy="4.0" in="blurOut2" result="blurOut3"/><feBlend in="SourceGraphic" in2="blurOut3" mode="normal"/></filter></defs><g><!--cluster org.itquasar.multiverse.jagrosk.persistence--><polygon fill="#FFFFFF" filter="url(#fokddh5)" points="182,147,534,147,541,169.2969,1519,169.2969,1519,354,182,354,182,147" style="stroke: #000000; stroke-width: 2.0;"/><line style="stroke: #000000; stroke-width: 2.0;" x1="182" x2="541" y1="169.2969" y2="169.2969"/><text fill="#000000" font-family="sans-serif" font-size="14" font-weight="bold" lengthAdjust="spacingAndGlyphs" textLength="346" x="186" y="161.9951">org.itquasar.multiverse.jagrosk.persistence</text><!--cluster org.itquasar.multiverse.jagrosk.persistence.jpa--><polygon fill="#FFFFFF" filter="url(#fokddh5)" points="22,24,402,24,409,46.2969,820,46.2969,820,123,22,123,22,24" style="stroke: #000000; stroke-width: 2.0;"/><line style="stroke: #000000; stroke-width: 2.0;" x1="22" x2="409" y1="46.2969" y2="46.2969"/><text fill="#000000" font-family="sans-serif" font-size="14" font-weight="bold" lengthAdjust="spacingAndGlyphs" textLength="374" x="26" y="38.9951">org.itquasar.multiverse.jagrosk.persistence.jpa</text><!--cluster org.itquasar.multiverse.jagrosk.persistence.mem--><polygon fill="#FFFFFF" filter="url(#fokddh5)" points="844,24,1239,24,1246,46.2969,1249,46.2969,1249,123,844,123,844,24" style="stroke: #000000; stroke-width: 2.0;"/><line style="stroke: #000000; stroke-width: 2.0;" x1="844" x2="1246" y1="46.2969" y2="46.2969"/><text fill="#000000" font-family="sans-serif" font-size="14" font-weight="bold" lengthAdjust="spacingAndGlyphs" textLength="389" x="848" y="38.9951">org.itquasar.multiverse.jagrosk.persistence.mem</text><!--class org.itquasar.multiverse.jagrosk.persistence.Transaction--><rect fill="#FEFECE" filter="url(#fokddh5)" height="48" style="stroke: #A80036; stroke-width: 1.5;" width="105" x="534.5" y="182"/><ellipse cx="549.5" cy="198" fill="#A9DCDF" rx="11" ry="11" style="stroke: #A80036; stroke-width: 1.0;"/><path d="M549.6094,193.3438 L548.4531,198.4219 L550.7813,198.4219 L549.6094,193.3438 Z M548.125,191.1094 L551.1094,191.1094 L554.4688,203.5 L552.0156,203.5 L551.25,200.4375 L547.9688,200.4375 L547.2188,203.5 L544.7813,203.5 L548.125,191.1094 Z "/><text fill="#000000" font-family="sans-serif" font-size="12" font-style="italic" lengthAdjust="spacingAndGlyphs" textLength="73" x="563.5" y="202.1543">Transaction</text><line style="stroke: #A80036; stroke-width: 1.5;" x1="535.5" x2="638.5" y1="214" y2="214"/><line style="stroke: #A80036; stroke-width: 1.5;" x1="535.5" x2="638.5" y1="222" y2="222"/><!--class org.itquasar.multiverse.jagrosk.persistence.JagroskPersistenceFactory--><rect fill="#FEFECE" filter="url(#fokddh5)" height="48" style="stroke: #A80036; stroke-width: 1.5;" width="198" x="859" y="182"/><ellipse cx="874" cy="198" fill="#ADD1B2" rx="11" ry="11" style="stroke: #A80036; stroke-width: 1.0;"/><path d="M876.9688,203.6406 Q876.3906,203.9375 875.75,204.0859 Q875.1094,204.2344 874.4063,204.2344 Q871.9063,204.2344 870.5859,202.5859 Q869.2656,200.9375 869.2656,197.8125 Q869.2656,194.6875 870.5859,193.0313 Q871.9063,191.375 874.4063,191.375 Q875.1094,191.375 875.7578,191.5313 Q876.4063,191.6875 876.9688,191.9844 L876.9688,194.7031 Q876.3438,194.125 875.75,193.8516 Q875.1563,193.5781 874.5313,193.5781 Q873.1875,193.5781 872.5,194.6484 Q871.8125,195.7188 871.8125,197.8125 Q871.8125,199.9063 872.5,200.9766 Q873.1875,202.0469 874.5313,202.0469 Q875.1563,202.0469 875.75,201.7734 Q876.3438,201.5 876.9688,200.9219 L876.9688,203.6406 Z "/><text fill="#000000" font-family="sans-serif" font-size="12" lengthAdjust="spacingAndGlyphs" textLength="166" x="888" y="202.1543">JagroskPersistenceFactory</text><line style="stroke: #A80036; stroke-width: 1.5;" x1="860" x2="1056" y1="214" y2="214"/><line style="stroke: #A80036; stroke-width: 1.5;" x1="860" x2="1056" y1="222" y2="222"/><!--class org.itquasar.multiverse.jagrosk.persistence.OneShotRepository--><rect fill="#FEFECE" filter="url(#fokddh5)" height="48" style="stroke: #A80036; stroke-width: 1.5;" width="152" x="198" y="182"/><ellipse cx="213" cy="198" fill="#ADD1B2" rx="11" ry="11" style="stroke: #A80036; stroke-width: 1.0;"/><path d="M215.9688,203.6406 Q215.3906,203.9375 214.75,204.0859 Q214.1094,204.2344 213.4063,204.2344 Q210.9063,204.2344 209.5859,202.5859 Q208.2656,200.9375 208.2656,197.8125 Q208.2656,194.6875 209.5859,193.0313 Q210.9063,191.375 213.4063,191.375 Q214.1094,191.375 214.7578,191.5313 Q215.4063,191.6875 215.9688,191.9844 L215.9688,194.7031 Q215.3438,194.125 214.75,193.8516 Q214.1563,193.5781 213.5313,193.5781 Q212.1875,193.5781 211.5,194.6484 Q210.8125,195.7188 210.8125,197.8125 Q210.8125,199.9063 211.5,200.9766 Q212.1875,202.0469 213.5313,202.0469 Q214.1563,202.0469 214.75,201.7734 Q215.3438,201.5 215.9688,200.9219 L215.9688,203.6406 Z "/><text fill="#000000" font-family="sans-serif" font-size="12" lengthAdjust="spacingAndGlyphs" textLength="120" x="227" y="202.1543">OneShotRepository</text><line style="stroke: #A80036; stroke-width: 1.5;" x1="199" x2="349" y1="214" y2="214"/><line style="stroke: #A80036; stroke-width: 1.5;" x1="199" x2="349" y1="222" y2="222"/><!--class org.itquasar.multiverse.jagrosk.persistence.JagroskPersistenceType--><rect fill="#FEFECE" filter="url(#fokddh5)" height="48" style="stroke: #A80036; stroke-width: 1.5;" width="181" x="1092.5" y="182"/><ellipse cx="1107.5" cy="198" fill="#EB937F" rx="11" ry="11" style="stroke: #A80036; stroke-width: 1.0;"/><path d="M1111.6094,204 L1103.8906,204 L1103.8906,191.6094 L1111.6094,191.6094 L1111.6094,193.7656 L1106.3438,193.7656 L1106.3438,196.4375 L1111.1094,196.4375 L1111.1094,198.5938 L1106.3438,198.5938 L1106.3438,201.8438 L1111.6094,201.8438 L1111.6094,204 Z "/><text fill="#000000" font-family="sans-serif" font-size="12" lengthAdjust="spacingAndGlyphs" textLength="149" x="1121.5" y="202.1543">JagroskPersistenceType</text><line style="stroke: #A80036; stroke-width: 1.5;" x1="1093.5" x2="1272.5" y1="214" y2="214"/><line style="stroke: #A80036; stroke-width: 1.5;" x1="1093.5" x2="1272.5" y1="222" y2="222"/><!--class org.itquasar.multiverse.jagrosk.persistence.JagroskEntity--><rect fill="#FEFECE" filter="url(#fokddh5)" height="48" style="stroke: #A80036; stroke-width: 1.5;" width="114" x="385" y="182"/><ellipse cx="400" cy="198" fill="#B4A7E5" rx="11" ry="11" style="stroke: #A80036; stroke-width: 1.0;"/><path d="M395.9219,193.7656 L395.9219,191.6094 L403.3125,191.6094 L403.3125,193.7656 L400.8438,193.7656 L400.8438,201.8438 L403.3125,201.8438 L403.3125,204 L395.9219,204 L395.9219,201.8438 L398.3906,201.8438 L398.3906,193.7656 L395.9219,193.7656 Z "/><text fill="#000000" font-family="sans-serif" font-size="12" font-style="italic" lengthAdjust="spacingAndGlyphs" textLength="82" x="414" y="202.1543">JagroskEntity</text><line style="stroke: #A80036; stroke-width: 1.5;" x1="386" x2="498" y1="214" y2="214"/><line style="stroke: #A80036; stroke-width: 1.5;" x1="386" x2="498" y1="222" y2="222"/><!--class org.itquasar.multiverse.jagrosk.persistence.JagroskPersistence--><rect fill="#FEFECE" filter="url(#fokddh5)" height="48" style="stroke: #A80036; stroke-width: 1.5;" width="149" x="674.5" y="182"/><ellipse cx="689.5" cy="198" fill="#B4A7E5" rx="11" ry="11" style="stroke: #A80036; stroke-width: 1.0;"/><path d="M685.4219,193.7656 L685.4219,191.6094 L692.8125,191.6094 L692.8125,193.7656 L690.3438,193.7656 L690.3438,201.8438 L692.8125,201.8438 L692.8125,204 L685.4219,204 L685.4219,201.8438 L687.8906,201.8438 L687.8906,193.7656 L685.4219,193.7656 Z "/><text fill="#000000" font-family="sans-serif" font-size="12" font-style="italic" lengthAdjust="spacingAndGlyphs" textLength="117" x="703.5" y="202.1543">JagroskPersistence</text><line style="stroke: #A80036; stroke-width: 1.5;" x1="675.5" x2="822.5" y1="214" y2="214"/><line style="stroke: #A80036; stroke-width: 1.5;" x1="675.5" x2="822.5" y1="222" y2="222"/><!--class org.itquasar.multiverse.jagrosk.persistence.JagroskPersistenceOptions--><rect fill="#FEFECE" filter="url(#fokddh5)" height="48" style="stroke: #A80036; stroke-width: 1.5;" width="195" x="1308.5" y="182"/><ellipse cx="1323.5" cy="198" fill="#B4A7E5" rx="11" ry="11" style="stroke: #A80036; stroke-width: 1.0;"/><path d="M1319.4219,193.7656 L1319.4219,191.6094 L1326.8125,191.6094 L1326.8125,193.7656 L1324.3438,193.7656 L1324.3438,201.8438 L1326.8125,201.8438 L1326.8125,204 L1319.4219,204 L1319.4219,201.8438 L1321.8906,201.8438 L1321.8906,193.7656 L1319.4219,193.7656 Z "/><text fill="#000000" font-family="sans-serif" font-size="12" font-style="italic" lengthAdjust="spacingAndGlyphs" textLength="163" x="1337.5" y="202.1543">JagroskPersistenceOptions</text><line style="stroke: #A80036; stroke-width: 1.5;" x1="1309.5" x2="1502.5" y1="214" y2="214"/><line style="stroke: #A80036; stroke-width: 1.5;" x1="1309.5" x2="1502.5" y1="222" y2="222"/><!--class org.itquasar.multiverse.jagrosk.persistence.JagroskPredicate--><rect fill="#FEFECE" filter="url(#fokddh5)" height="48" style="stroke: #A80036; stroke-width: 1.5;" width="137" x="1114.5" y="290"/><ellipse cx="1129.5" cy="306" fill="#B4A7E5" rx="11" ry="11" style="stroke: #A80036; stroke-width: 1.0;"/><path d="M1125.4219,301.7656 L1125.4219,299.6094 L1132.8125,299.6094 L1132.8125,301.7656 L1130.3438,301.7656 L1130.3438,309.8438 L1132.8125,309.8438 L1132.8125,312 L1125.4219,312 L1125.4219,309.8438 L1127.8906,309.8438 L1127.8906,301.7656 L1125.4219,301.7656 Z "/><text fill="#000000" font-family="sans-serif" font-size="12" font-style="italic" lengthAdjust="spacingAndGlyphs" textLength="105" x="1143.5" y="310.1543">JagroskPredicate</text><line style="stroke: #A80036; stroke-width: 1.5;" x1="1115.5" x2="1250.5" y1="322" y2="322"/><line style="stroke: #A80036; stroke-width: 1.5;" x1="1115.5" x2="1250.5" y1="330" y2="330"/><!--class org.itquasar.multiverse.jagrosk.persistence.Repository--><rect fill="#FEFECE" filter="url(#fokddh5)" height="48" style="stroke: #A80036; stroke-width: 1.5;" width="98" x="225" y="290"/><ellipse cx="240" cy="306" fill="#B4A7E5" rx="11" ry="11" style="stroke: #A80036; stroke-width: 1.0;"/><path d="M235.9219,301.7656 L235.9219,299.6094 L243.3125,299.6094 L243.3125,301.7656 L240.8438,301.7656 L240.8438,309.8438 L243.3125,309.8438 L243.3125,312 L235.9219,312 L235.9219,309.8438 L238.3906,309.8438 L238.3906,301.7656 L235.9219,301.7656 Z "/><text fill="#000000" font-family="sans-serif" font-size="12" font-style="italic" lengthAdjust="spacingAndGlyphs" textLength="66" x="254" y="310.1543">Repository</text><line style="stroke: #A80036; stroke-width: 1.5;" x1="226" x2="322" y1="322" y2="322"/><line style="stroke: #A80036; stroke-width: 1.5;" x1="226" x2="322" y1="330" y2="330"/><!--class org.itquasar.multiverse.jagrosk.persistence.jpa.JPAOneShotRepository--><rect fill="#FEFECE" filter="url(#fokddh5)" height="48" style="stroke: #A80036; stroke-width: 1.5;" width="171" x="190.5" y="59"/><ellipse cx="205.5" cy="75" fill="#ADD1B2" rx="11" ry="11" style="stroke: #A80036; stroke-width: 1.0;"/><path d="M208.4688,80.6406 Q207.8906,80.9375 207.25,81.0859 Q206.6094,81.2344 205.9063,81.2344 Q203.4063,81.2344 202.0859,79.5859 Q200.7656,77.9375 200.7656,74.8125 Q200.7656,71.6875 202.0859,70.0313 Q203.4063,68.375 205.9063,68.375 Q206.6094,68.375 207.2578,68.5313 Q207.9063,68.6875 208.4688,68.9844 L208.4688,71.7031 Q207.8438,71.125 207.25,70.8516 Q206.6563,70.5781 206.0313,70.5781 Q204.6875,70.5781 204,71.6484 Q203.3125,72.7188 203.3125,74.8125 Q203.3125,76.9063 204,77.9766 Q204.6875,79.0469 206.0313,79.0469 Q206.6563,79.0469 207.25,78.7734 Q207.8438,78.5 208.4688,77.9219 L208.4688,80.6406 Z "/><text fill="#000000" font-family="sans-serif" font-size="12" lengthAdjust="spacingAndGlyphs" textLength="139" x="219.5" y="79.1543">JPAOneShotRepository</text><line style="stroke: #A80036; stroke-width: 1.5;" x1="191.5" x2="360.5" y1="91" y2="91"/><line style="stroke: #A80036; stroke-width: 1.5;" x1="191.5" x2="360.5" y1="99" y2="99"/><!--class org.itquasar.multiverse.jagrosk.persistence.jpa.JPAPersistence--><rect fill="#FEFECE" filter="url(#fokddh5)" height="48" style="stroke: #A80036; stroke-width: 1.5;" width="125" x="678.5" y="59"/><ellipse cx="693.5" cy="75" fill="#ADD1B2" rx="11" ry="11" style="stroke: #A80036; stroke-width: 1.0;"/><path d="M696.4688,80.6406 Q695.8906,80.9375 695.25,81.0859 Q694.6094,81.2344 693.9063,81.2344 Q691.4063,81.2344 690.0859,79.5859 Q688.7656,77.9375 688.7656,74.8125 Q688.7656,71.6875 690.0859,70.0313 Q691.4063,68.375 693.9063,68.375 Q694.6094,68.375 695.2578,68.5313 Q695.9063,68.6875 696.4688,68.9844 L696.4688,71.7031 Q695.8438,71.125 695.25,70.8516 Q694.6563,70.5781 694.0313,70.5781 Q692.6875,70.5781 692,71.6484 Q691.3125,72.7188 691.3125,74.8125 Q691.3125,76.9063 692,77.9766 Q692.6875,79.0469 694.0313,79.0469 Q694.6563,79.0469 695.25,78.7734 Q695.8438,78.5 696.4688,77.9219 L696.4688,80.6406 Z "/><text fill="#000000" font-family="sans-serif" font-size="12" lengthAdjust="spacingAndGlyphs" textLength="93" x="707.5" y="79.1543">JPAPersistence</text><line style="stroke: #A80036; stroke-width: 1.5;" x1="679.5" x2="802.5" y1="91" y2="91"/><line style="stroke: #A80036; stroke-width: 1.5;" x1="679.5" x2="802.5" y1="99" y2="99"/><!--class org.itquasar.multiverse.jagrosk.persistence.jpa.JPAQuery--><rect fill="#FEFECE" filter="url(#fokddh5)" height="48" style="stroke: #A80036; stroke-width: 1.5;" width="87" x="396.5" y="59"/><ellipse cx="411.5" cy="75" fill="#ADD1B2" rx="11" ry="11" style="stroke: #A80036; stroke-width: 1.0;"/><path d="M414.4688,80.6406 Q413.8906,80.9375 413.25,81.0859 Q412.6094,81.2344 411.9063,81.2344 Q409.4063,81.2344 408.0859,79.5859 Q406.7656,77.9375 406.7656,74.8125 Q406.7656,71.6875 408.0859,70.0313 Q409.4063,68.375 411.9063,68.375 Q412.6094,68.375 413.2578,68.5313 Q413.9063,68.6875 414.4688,68.9844 L414.4688,71.7031 Q413.8438,71.125 413.25,70.8516 Q412.6563,70.5781 412.0313,70.5781 Q410.6875,70.5781 410,71.6484 Q409.3125,72.7188 409.3125,74.8125 Q409.3125,76.9063 410,77.9766 Q410.6875,79.0469 412.0313,79.0469 Q412.6563,79.0469 413.25,78.7734 Q413.8438,78.5 414.4688,77.9219 L414.4688,80.6406 Z "/><text fill="#000000" font-family="sans-serif" font-size="12" lengthAdjust="spacingAndGlyphs" textLength="55" x="425.5" y="79.1543">JPAQuery</text><line style="stroke: #A80036; stroke-width: 1.5;" x1="397.5" x2="482.5" y1="91" y2="91"/><line style="stroke: #A80036; stroke-width: 1.5;" x1="397.5" x2="482.5" y1="99" y2="99"/><!--class org.itquasar.multiverse.jagrosk.persistence.jpa.JPARepository--><rect fill="#FEFECE" filter="url(#fokddh5)" height="48" style="stroke: #A80036; stroke-width: 1.5;" width="117" x="38.5" y="59"/><ellipse cx="53.5" cy="75" fill="#ADD1B2" rx="11" ry="11" style="stroke: #A80036; stroke-width: 1.0;"/><path d="M56.4688,80.6406 Q55.8906,80.9375 55.25,81.0859 Q54.6094,81.2344 53.9063,81.2344 Q51.4063,81.2344 50.0859,79.5859 Q48.7656,77.9375 48.7656,74.8125 Q48.7656,71.6875 50.0859,70.0313 Q51.4063,68.375 53.9063,68.375 Q54.6094,68.375 55.2578,68.5313 Q55.9063,68.6875 56.4688,68.9844 L56.4688,71.7031 Q55.8438,71.125 55.25,70.8516 Q54.6563,70.5781 54.0313,70.5781 Q52.6875,70.5781 52,71.6484 Q51.3125,72.7188 51.3125,74.8125 Q51.3125,76.9063 52,77.9766 Q52.6875,79.0469 54.0313,79.0469 Q54.6563,79.0469 55.25,78.7734 Q55.8438,78.5 56.4688,77.9219 L56.4688,80.6406 Z "/><text fill="#000000" font-family="sans-serif" font-size="12" lengthAdjust="spacingAndGlyphs" textLength="85" x="67.5" y="79.1543">JPARepository</text><line style="stroke: #A80036; stroke-width: 1.5;" x1="39.5" x2="154.5" y1="91" y2="91"/><line style="stroke: #A80036; stroke-width: 1.5;" x1="39.5" x2="154.5" y1="99" y2="99"/><!--class org.itquasar.multiverse.jagrosk.persistence.jpa.JPATransaction--><rect fill="#FEFECE" filter="url(#fokddh5)" height="48" style="stroke: #A80036; stroke-width: 1.5;" width="125" x="518.5" y="59"/><ellipse cx="533.5" cy="75" fill="#ADD1B2" rx="11" ry="11" style="stroke: #A80036; stroke-width: 1.0;"/><path d="M536.4688,80.6406 Q535.8906,80.9375 535.25,81.0859 Q534.6094,81.2344 533.9063,81.2344 Q531.4063,81.2344 530.0859,79.5859 Q528.7656,77.9375 528.7656,74.8125 Q528.7656,71.6875 530.0859,70.0313 Q531.4063,68.375 533.9063,68.375 Q534.6094,68.375 535.2578,68.5313 Q535.9063,68.6875 536.4688,68.9844 L536.4688,71.7031 Q535.8438,71.125 535.25,70.8516 Q534.6563,70.5781 534.0313,70.5781 Q532.6875,70.5781 532,71.6484 Q531.3125,72.7188 531.3125,74.8125 Q531.3125,76.9063 532,77.9766 Q532.6875,79.0469 534.0313,79.0469 Q534.6563,79.0469 535.25,78.7734 Q535.8438,78.5 536.4688,77.9219 L536.4688,80.6406 Z "/><text fill="#000000" font-family="sans-serif" font-size="12" lengthAdjust="spacingAndGlyphs" textLength="93" x="547.5" y="79.1543">JPATransaction</text><line style="stroke: #A80036; stroke-width: 1.5;" x1="519.5" x2="642.5" y1="91" y2="91"/><line style="stroke: #A80036; stroke-width: 1.5;" x1="519.5" x2="642.5" y1="99" y2="99"/><!--class org.itquasar.multiverse.jagrosk.persistence.mem.MemoryPersistence--><rect fill="#FEFECE" filter="url(#fokddh5)" height="48" style="stroke: #A80036; stroke-width: 1.5;" width="154" x="860" y="59"/><ellipse cx="875" cy="75" fill="#ADD1B2" rx="11" ry="11" style="stroke: #A80036; stroke-width: 1.0;"/><path d="M877.9688,80.6406 Q877.3906,80.9375 876.75,81.0859 Q876.1094,81.2344 875.4063,81.2344 Q872.9063,81.2344 871.5859,79.5859 Q870.2656,77.9375 870.2656,74.8125 Q870.2656,71.6875 871.5859,70.0313 Q872.9063,68.375 875.4063,68.375 Q876.1094,68.375 876.7578,68.5313 Q877.4063,68.6875 877.9688,68.9844 L877.9688,71.7031 Q877.3438,71.125 876.75,70.8516 Q876.1563,70.5781 875.5313,70.5781 Q874.1875,70.5781 873.5,71.6484 Q872.8125,72.7188 872.8125,74.8125 Q872.8125,76.9063 873.5,77.9766 Q874.1875,79.0469 875.5313,79.0469 Q876.1563,79.0469 876.75,78.7734 Q877.3438,78.5 877.9688,77.9219 L877.9688,80.6406 Z "/><text fill="#000000" font-family="sans-serif" font-size="12" lengthAdjust="spacingAndGlyphs" textLength="122" x="889" y="79.1543">MemoryPersistence</text><line style="stroke: #A80036; stroke-width: 1.5;" x1="861" x2="1013" y1="91" y2="91"/><line style="stroke: #A80036; stroke-width: 1.5;" x1="861" x2="1013" y1="99" y2="99"/><!--class org.itquasar.multiverse.jagrosk.persistence.mem.MemoryRepository--><rect fill="#FEFECE" filter="url(#fokddh5)" height="48" style="stroke: #A80036; stroke-width: 1.5;" width="146" x="1049" y="59"/><ellipse cx="1064" cy="75" fill="#ADD1B2" rx="11" ry="11" style="stroke: #A80036; stroke-width: 1.0;"/><path d="M1066.9688,80.6406 Q1066.3906,80.9375 1065.75,81.0859 Q1065.1094,81.2344 1064.4063,81.2344 Q1061.9063,81.2344 1060.5859,79.5859 Q1059.2656,77.9375 1059.2656,74.8125 Q1059.2656,71.6875 1060.5859,70.0313 Q1061.9063,68.375 1064.4063,68.375 Q1065.1094,68.375 1065.7578,68.5313 Q1066.4063,68.6875 1066.9688,68.9844 L1066.9688,71.7031 Q1066.3438,71.125 1065.75,70.8516 Q1065.1563,70.5781 1064.5313,70.5781 Q1063.1875,70.5781 1062.5,71.6484 Q1061.8125,72.7188 1061.8125,74.8125 Q1061.8125,76.9063 1062.5,77.9766 Q1063.1875,79.0469 1064.5313,79.0469 Q1065.1563,79.0469 1065.75,78.7734 Q1066.3438,78.5 1066.9688,77.9219 L1066.9688,80.6406 Z "/><text fill="#000000" font-family="sans-serif" font-size="12" lengthAdjust="spacingAndGlyphs" textLength="114" x="1078" y="79.1543">MemoryRepository</text><line style="stroke: #A80036; stroke-width: 1.5;" x1="1050" x2="1194" y1="91" y2="91"/><line style="stroke: #A80036; stroke-width: 1.5;" x1="1050" x2="1194" y1="99" y2="99"/><path d="M917.45,181.984 C894.959,169.254 866.467,153.186 841,139 C823.754,129.394 804.785,118.934 788.047,109.74 " fill="none" style="stroke: #A80036; stroke-width: 1.0; stroke-dasharray: 7.0,7.0;"/><polygon fill="#A80036" points="783.388,107.182,789.3521,115.0197,787.7709,109.5884,793.2022,108.0072,783.388,107.182" style="stroke: #A80036; stroke-width: 1.0;"/><path d="M953.944,181.63 C950.505,161.812 945.561,133.327 941.901,112.237 " fill="none" style="stroke: #A80036; stroke-width: 1.0; stroke-dasharray: 7.0,7.0;"/><polygon fill="#A80036" points="940.999,107.044,938.598,116.5957,941.8546,111.9703,946.48,115.2268,940.999,107.044" style="stroke: #A80036; stroke-width: 1.0;"/><path d="M274,230 C274,241.588 274,256.029 274,269.601 " fill="none" style="stroke: #A80036; stroke-width: 1.0;"/><polygon fill="none" points="281,269.678,274,289.6784,267,269.678,281,269.678" style="stroke: #A80036; stroke-width: 1.0;"/><path d="M275.619,107.044 C275.365,122.42 275.023,143.119 274.719,161.527 " fill="none" style="stroke: #A80036; stroke-width: 1.0;"/><polygon fill="none" points="281.716,161.748,274.386,181.63,267.718,161.517,281.716,161.748" style="stroke: #A80036; stroke-width: 1.0;"/><path d="M317.772,107.138 C333.596,116.443 351.517,127.648 367,139 C383.366,150.999 400.438,165.816 414.152,178.369 " fill="none" style="stroke: #A80036; stroke-width: 1.0; stroke-dasharray: 7.0,7.0;"/><polygon fill="#A80036" points="417.928,181.845,414.0147,172.8069,414.2491,178.4589,408.5971,178.6933,417.928,181.845" style="stroke: #A80036; stroke-width: 1.0;"/><path d="M702.801,107.001 C688.084,116.376 671.371,127.665 657,139 C641.787,150.999 625.989,165.675 613.259,178.139 " fill="none" style="stroke: #A80036; stroke-width: 1.0; stroke-dasharray: 7.0,7.0;"/><polygon fill="#A80036" points="609.41,181.93,618.6286,178.4633,612.9719,178.421,613.0142,172.7643,609.41,181.93" style="stroke: #A80036; stroke-width: 1.0;"/><path d="M709.552,107.178 C695.43,116.307 678.117,125.83 661,131 C630.32,140.267 546.66,126.857 517,139 C496.606,147.349 477.981,163.668 464.393,177.989 " fill="none" style="stroke: #A80036; stroke-width: 1.0; stroke-dasharray: 7.0,7.0;"/><polygon fill="#A80036" points="460.697,181.967,469.754,178.0977,464.1009,178.3046,463.8941,172.6515,460.697,181.967" style="stroke: #A80036; stroke-width: 1.0;"/><path d="M742.524,107.044 C743.828,126.766 745.71,155.243 747.11,176.414 " fill="none" style="stroke: #A80036; stroke-width: 1.0; stroke-dasharray: 7.0,7.0;"/><polygon fill="#A80036" points="747.455,181.63,750.8522,172.3856,747.125,176.6409,742.8697,172.9137,747.455,181.63" style="stroke: #A80036; stroke-width: 1.0;"/><path d="M710.405,107.003 C696.165,116.342 678.524,126.076 661,131 C648.135,134.615 189.37,129.473 180,139 C151.64,167.835 163.371,193.132 180,230 C190.486,253.247 211.057,272.5977 230.288,286.7505 " fill="none" style="stroke: #A80036; stroke-width: 1.0; stroke-dasharray: 7.0,7.0;"/><polygon fill="#A80036" points="234.624,289.8719,229.6571,281.3672,230.5662,286.9505,224.9829,287.8597,234.624,289.8719" style="stroke: #A80036; stroke-width: 1.0;"/><path d="M440.381,107.044 C440.707,126.766 441.178,155.243 441.528,176.414 " fill="none" style="stroke: #A80036; stroke-width: 1.0; stroke-dasharray: 7.0,7.0;"/><polygon fill="#A80036" points="441.614,181.63,445.4643,172.565,441.5312,176.6307,437.4654,172.6975,441.614,181.63" style="stroke: #A80036; stroke-width: 1.0;"/><path d="M126.32,107.048 C139.765,116.273 156.388,125.906 173,131 C214.252,143.649 326.953,122.938 367,139 C387.453,147.203 406.078,163.521 419.652,177.878 " fill="none" style="stroke: #A80036; stroke-width: 1.0; stroke-dasharray: 7.0,7.0;"/><polygon fill="#A80036" points="423.344,181.867,420.1677,172.5444,419.9483,178.197,414.2957,177.9776,423.344,181.867" style="stroke: #A80036; stroke-width: 1.0;"/><path d="M94.4836,107.062 C92.3479,137.952 92.9941,193.135 119,230 C139.837,259.538 174.564,279.5093 205.872,292.4438 " fill="none" style="stroke: #A80036; stroke-width: 1.0;"/><polygon fill="none" points="208.55,285.9731,224.768,299.6106,203.586,299.0633,208.55,285.9731" style="stroke: #A80036; stroke-width: 1.0;"/><path d="M582.143,107.044 C582.905,122.42 583.932,143.119 584.844,161.527 " fill="none" style="stroke: #A80036; stroke-width: 1.0;"/><polygon fill="none" points="591.842,161.307,585.841,181.63,577.859,162.001,591.842,161.307" style="stroke: #A80036; stroke-width: 1.0;"/><path d="M890.041,107.03 C869.111,116.192 843.843,125.781 820,131 C784.573,138.755 690.367,124.793 657,139 C637.474,147.313 620.088,163.632 607.526,177.962 " fill="none" style="stroke: #A80036; stroke-width: 1.0; stroke-dasharray: 7.0,7.0;"/><polygon fill="#A80036" points="604.114,181.943,613.0079,177.7123,607.3677,178.1465,606.9335,172.5064,604.114,181.943" style="stroke: #A80036; stroke-width: 1.0;"/><path d="M890.658,107.041 C869.63,116.325 844.115,126.006 820,131 C787.021,137.829 548.35,126.695 517,139 C496.486,147.052 477.861,163.368 464.302,177.763 " fill="none" style="stroke: #A80036; stroke-width: 1.0; stroke-dasharray: 7.0,7.0;"/><polygon fill="#A80036" points="460.615,181.763,469.6562,177.857,464.004,178.0868,463.7743,172.4346,460.615,181.763" style="stroke: #A80036; stroke-width: 1.0;"/><path d="M894.388,107.181 C877.53,116.669 858.128,127.991 841,139 C826.07,148.597 810.227,159.634 795.973,169.902 " fill="none" style="stroke: #A80036; stroke-width: 1.0;"/><polygon fill="none" points="799.823,175.758,779.542,181.896,791.568,164.45,799.823,175.758" style="stroke: #A80036; stroke-width: 1.0;"/><path d="M973.477,107.025 C990.311,116.368 1010.97,126.099 1031,131 C1044.22,134.236 1511.45,129.296 1521,139 C1549.36,167.831 1548.63,200.467 1521,230 C1479.66,274.1844 563.264,304.3949 328.433,311.4294 " fill="none" style="stroke: #A80036; stroke-width: 1.0; stroke-dasharray: 7.0,7.0;"/><polygon fill="#A80036" points="323.347,311.5813,332.4629,315.3095,328.3447,311.4313,332.223,307.3131,323.347,311.5813" style="stroke: #A80036; stroke-width: 1.0;"/><path d="M1086.78,107.029 C1070.5,116.373 1050.49,126.104 1031,131 C1003.302,137.959 543.641,128.71 517,139 C496.443,146.94 477.817,163.256 464.269,177.678 " fill="none" style="stroke: #A80036; stroke-width: 1.0; stroke-dasharray: 7.0,7.0;"/><polygon fill="#A80036" points="460.585,181.687,469.6199,177.7665,463.9681,178.0053,463.7292,172.3535,460.585,181.687" style="stroke: #A80036; stroke-width: 1.0;"/><path d="M1195.11,88.044 C1312.8,95.308 1533.5,112.34 1557,139 C1583.74,169.339 1584.66,200.493 1557,230 C1515.17,274.6203 604.319,303.6811 343.318,311.1139 " fill="none" style="stroke: #A80036; stroke-width: 1.0;"/><polygon fill="none" points="343.416,318.1139,323.226,311.6797,343.021,304.1194,343.416,318.1139" style="stroke: #A80036; stroke-width: 1.0;"/></g></svg>