<?xml version="1.0" encoding="UTF-8" standalone="no"?><svg xmlns="http://www.w3.org/2000/svg" xmlns:xlink="http://www.w3.org/1999/xlink" contentScriptType="application/ecmascript" contentStyleType="text/css" height="361px" preserveAspectRatio="none" style="width:1760px;height:361px;" version="1.1" viewBox="0 0 1760 361" width="1760px" zoomAndPan="magnify"><defs><filter height="300%" id="fpvw1wt" width="300%" x="-1" y="-1"><feGaussianBlur result="blurOut" stdDeviation="2.0"/><feColorMatrix in="blurOut" result="blurOut2" type="matrix" values="0 0 0 0 0 0 0 0 0 0 0 0 0 0 0 0 0 0 .4 0"/><feOffset dx="4.0" dy="4.0" in="blurOut2" result="blurOut3"/><feBlend in="SourceGraphic" in2="blurOut3" mode="normal"/></filter></defs><g><!--cluster org.itquasar.multiverse.jagrosk.persistence--><polygon fill="#FFFFFF" filter="url(#fpvw1wt)" points="321,147,673,147,680,169.2969,1658,169.2969,1658,354,321,354,321,147" style="stroke: #000000; stroke-width: 2.0;"/><line style="stroke: #000000; stroke-width: 2.0;" x1="321" x2="680" y1="169.2969" y2="169.2969"/><text fill="#000000" font-family="sans-serif" font-size="14" font-weight="bold" lengthAdjust="spacingAndGlyphs" textLength="346" x="325" y="161.9951">org.itquasar.multiverse.jagrosk.persistence</text><!--cluster org.itquasar.multiverse.jagrosk.persistence.jpa--><polygon fill="#FFFFFF" filter="url(#fpvw1wt)" points="22,24,402,24,409,46.2969,820,46.2969,820,123,22,123,22,24" style="stroke: #000000; stroke-width: 2.0;"/><line style="stroke: #000000; stroke-width: 2.0;" x1="22" x2="409" y1="46.2969" y2="46.2969"/><text fill="#000000" font-family="sans-serif" font-size="14" font-weight="bold" lengthAdjust="spacingAndGlyphs" textLength="374" x="26" y="38.9951">org.itquasar.multiverse.jagrosk.persistence.jpa</text><!--cluster org.itquasar.multiverse.jagrosk.persistence.mem--><polygon fill="#FFFFFF" filter="url(#fpvw1wt)" points="844,24,1239,24,1246,46.2969,1400,46.2969,1400,123,844,123,844,24" style="stroke: #000000; stroke-width: 2.0;"/><line style="stroke: #000000; stroke-width: 2.0;" x1="844" x2="1246" y1="46.2969" y2="46.2969"/><text fill="#000000" font-family="sans-serif" font-size="14" font-weight="bold" lengthAdjust="spacingAndGlyphs" textLength="389" x="848" y="38.9951">org.itquasar.multiverse.jagrosk.persistence.mem</text><!--class org.itquasar.multiverse.jagrosk.persistence.Transaction--><rect fill="#FEFECE" filter="url(#fpvw1wt)" height="48" style="stroke: #A80036; stroke-width: 1.5;" width="105" x="673.5" y="182"/><ellipse cx="688.5" cy="198" fill="#A9DCDF" rx="11" ry="11" style="stroke: #A80036; stroke-width: 1.0;"/><path d="M688.6094,193.3438 L687.4531,198.4219 L689.7813,198.4219 L688.6094,193.3438 Z M687.125,191.1094 L690.1094,191.1094 L693.4688,203.5 L691.0156,203.5 L690.25,200.4375 L686.9688,200.4375 L686.2188,203.5 L683.7813,203.5 L687.125,191.1094 Z "/><text fill="#000000" font-family="sans-serif" font-size="12" font-style="italic" lengthAdjust="spacingAndGlyphs" textLength="73" x="702.5" y="202.1543">Transaction</text><line style="stroke: #A80036; stroke-width: 1.5;" x1="674.5" x2="777.5" y1="214" y2="214"/><line style="stroke: #A80036; stroke-width: 1.5;" x1="674.5" x2="777.5" y1="222" y2="222"/><!--class org.itquasar.multiverse.jagrosk.persistence.JagroskPersistenceFactory--><rect fill="#FEFECE" filter="url(#fpvw1wt)" height="48" style="stroke: #A80036; stroke-width: 1.5;" width="198" x="998" y="182"/><ellipse cx="1013" cy="198" fill="#ADD1B2" rx="11" ry="11" style="stroke: #A80036; stroke-width: 1.0;"/><path d="M1015.9688,203.6406 Q1015.3906,203.9375 1014.75,204.0859 Q1014.1094,204.2344 1013.4063,204.2344 Q1010.9063,204.2344 1009.5859,202.5859 Q1008.2656,200.9375 1008.2656,197.8125 Q1008.2656,194.6875 1009.5859,193.0313 Q1010.9063,191.375 1013.4063,191.375 Q1014.1094,191.375 1014.7578,191.5313 Q1015.4063,191.6875 1015.9688,191.9844 L1015.9688,194.7031 Q1015.3438,194.125 1014.75,193.8516 Q1014.1563,193.5781 1013.5313,193.5781 Q1012.1875,193.5781 1011.5,194.6484 Q1010.8125,195.7188 1010.8125,197.8125 Q1010.8125,199.9063 1011.5,200.9766 Q1012.1875,202.0469 1013.5313,202.0469 Q1014.1563,202.0469 1014.75,201.7734 Q1015.3438,201.5 1015.9688,200.9219 L1015.9688,203.6406 Z "/><text fill="#000000" font-family="sans-serif" font-size="12" lengthAdjust="spacingAndGlyphs" textLength="166" x="1027" y="202.1543">JagroskPersistenceFactory</text><line style="stroke: #A80036; stroke-width: 1.5;" x1="999" x2="1195" y1="214" y2="214"/><line style="stroke: #A80036; stroke-width: 1.5;" x1="999" x2="1195" y1="222" y2="222"/><!--class org.itquasar.multiverse.jagrosk.persistence.OneShotRepository--><rect fill="#FEFECE" filter="url(#fpvw1wt)" height="48" style="stroke: #A80036; stroke-width: 1.5;" width="152" x="337" y="182"/><ellipse cx="352" cy="198" fill="#ADD1B2" rx="11" ry="11" style="stroke: #A80036; stroke-width: 1.0;"/><path d="M354.9688,203.6406 Q354.3906,203.9375 353.75,204.0859 Q353.1094,204.2344 352.4063,204.2344 Q349.9063,204.2344 348.5859,202.5859 Q347.2656,200.9375 347.2656,197.8125 Q347.2656,194.6875 348.5859,193.0313 Q349.9063,191.375 352.4063,191.375 Q353.1094,191.375 353.7578,191.5313 Q354.4063,191.6875 354.9688,191.9844 L354.9688,194.7031 Q354.3438,194.125 353.75,193.8516 Q353.1563,193.5781 352.5313,193.5781 Q351.1875,193.5781 350.5,194.6484 Q349.8125,195.7188 349.8125,197.8125 Q349.8125,199.9063 350.5,200.9766 Q351.1875,202.0469 352.5313,202.0469 Q353.1563,202.0469 353.75,201.7734 Q354.3438,201.5 354.9688,200.9219 L354.9688,203.6406 Z "/><text fill="#000000" font-family="sans-serif" font-size="12" lengthAdjust="spacingAndGlyphs" textLength="120" x="366" y="202.1543">OneShotRepository</text><line style="stroke: #A80036; stroke-width: 1.5;" x1="338" x2="488" y1="214" y2="214"/><line style="stroke: #A80036; stroke-width: 1.5;" x1="338" x2="488" y1="222" y2="222"/><!--class org.itquasar.multiverse.jagrosk.persistence.JagroskPersistenceType--><rect fill="#FEFECE" filter="url(#fpvw1wt)" height="48" style="stroke: #A80036; stroke-width: 1.5;" width="181" x="1231.5" y="182"/><ellipse cx="1246.5" cy="198" fill="#EB937F" rx="11" ry="11" style="stroke: #A80036; stroke-width: 1.0;"/><path d="M1250.6094,204 L1242.8906,204 L1242.8906,191.6094 L1250.6094,191.6094 L1250.6094,193.7656 L1245.3438,193.7656 L1245.3438,196.4375 L1250.1094,196.4375 L1250.1094,198.5938 L1245.3438,198.5938 L1245.3438,201.8438 L1250.6094,201.8438 L1250.6094,204 Z "/><text fill="#000000" font-family="sans-serif" font-size="12" lengthAdjust="spacingAndGlyphs" textLength="149" x="1260.5" y="202.1543">JagroskPersistenceType</text><line style="stroke: #A80036; stroke-width: 1.5;" x1="1232.5" x2="1411.5" y1="214" y2="214"/><line style="stroke: #A80036; stroke-width: 1.5;" x1="1232.5" x2="1411.5" y1="222" y2="222"/><!--class org.itquasar.multiverse.jagrosk.persistence.JagroskEntity--><rect fill="#FEFECE" filter="url(#fpvw1wt)" height="48" style="stroke: #A80036; stroke-width: 1.5;" width="114" x="524" y="182"/><ellipse cx="539" cy="198" fill="#B4A7E5" rx="11" ry="11" style="stroke: #A80036; stroke-width: 1.0;"/><path d="M534.9219,193.7656 L534.9219,191.6094 L542.3125,191.6094 L542.3125,193.7656 L539.8438,193.7656 L539.8438,201.8438 L542.3125,201.8438 L542.3125,204 L534.9219,204 L534.9219,201.8438 L537.3906,201.8438 L537.3906,193.7656 L534.9219,193.7656 Z "/><text fill="#000000" font-family="sans-serif" font-size="12" font-style="italic" lengthAdjust="spacingAndGlyphs" textLength="82" x="553" y="202.1543">JagroskEntity</text><line style="stroke: #A80036; stroke-width: 1.5;" x1="525" x2="637" y1="214" y2="214"/><line style="stroke: #A80036; stroke-width: 1.5;" x1="525" x2="637" y1="222" y2="222"/><!--class org.itquasar.multiverse.jagrosk.persistence.JagroskPersistence--><rect fill="#FEFECE" filter="url(#fpvw1wt)" height="48" style="stroke: #A80036; stroke-width: 1.5;" width="149" x="813.5" y="182"/><ellipse cx="828.5" cy="198" fill="#B4A7E5" rx="11" ry="11" style="stroke: #A80036; stroke-width: 1.0;"/><path d="M824.4219,193.7656 L824.4219,191.6094 L831.8125,191.6094 L831.8125,193.7656 L829.3438,193.7656 L829.3438,201.8438 L831.8125,201.8438 L831.8125,204 L824.4219,204 L824.4219,201.8438 L826.8906,201.8438 L826.8906,193.7656 L824.4219,193.7656 Z "/><text fill="#000000" font-family="sans-serif" font-size="12" font-style="italic" lengthAdjust="spacingAndGlyphs" textLength="117" x="842.5" y="202.1543">JagroskPersistence</text><line style="stroke: #A80036; stroke-width: 1.5;" x1="814.5" x2="961.5" y1="214" y2="214"/><line style="stroke: #A80036; stroke-width: 1.5;" x1="814.5" x2="961.5" y1="222" y2="222"/><!--class org.itquasar.multiverse.jagrosk.persistence.JagroskPersistenceOptions--><rect fill="#FEFECE" filter="url(#fpvw1wt)" height="48" style="stroke: #A80036; stroke-width: 1.5;" width="195" x="1447.5" y="182"/><ellipse cx="1462.5" cy="198" fill="#B4A7E5" rx="11" ry="11" style="stroke: #A80036; stroke-width: 1.0;"/><path d="M1458.4219,193.7656 L1458.4219,191.6094 L1465.8125,191.6094 L1465.8125,193.7656 L1463.3438,193.7656 L1463.3438,201.8438 L1465.8125,201.8438 L1465.8125,204 L1458.4219,204 L1458.4219,201.8438 L1460.8906,201.8438 L1460.8906,193.7656 L1458.4219,193.7656 Z "/><text fill="#000000" font-family="sans-serif" font-size="12" font-style="italic" lengthAdjust="spacingAndGlyphs" textLength="163" x="1476.5" y="202.1543">JagroskPersistenceOptions</text><line style="stroke: #A80036; stroke-width: 1.5;" x1="1448.5" x2="1641.5" y1="214" y2="214"/><line style="stroke: #A80036; stroke-width: 1.5;" x1="1448.5" x2="1641.5" y1="222" y2="222"/><!--class org.itquasar.multiverse.jagrosk.persistence.JagroskPredicate--><rect fill="#FEFECE" filter="url(#fpvw1wt)" height="48" style="stroke: #A80036; stroke-width: 1.5;" width="137" x="1253.5" y="290"/><ellipse cx="1268.5" cy="306" fill="#B4A7E5" rx="11" ry="11" style="stroke: #A80036; stroke-width: 1.0;"/><path d="M1264.4219,301.7656 L1264.4219,299.6094 L1271.8125,299.6094 L1271.8125,301.7656 L1269.3438,301.7656 L1269.3438,309.8438 L1271.8125,309.8438 L1271.8125,312 L1264.4219,312 L1264.4219,309.8438 L1266.8906,309.8438 L1266.8906,301.7656 L1264.4219,301.7656 Z "/><text fill="#000000" font-family="sans-serif" font-size="12" font-style="italic" lengthAdjust="spacingAndGlyphs" textLength="105" x="1282.5" y="310.1543">JagroskPredicate</text><line style="stroke: #A80036; stroke-width: 1.5;" x1="1254.5" x2="1389.5" y1="322" y2="322"/><line style="stroke: #A80036; stroke-width: 1.5;" x1="1254.5" x2="1389.5" y1="330" y2="330"/><!--class org.itquasar.multiverse.jagrosk.persistence.Repository--><rect fill="#FEFECE" filter="url(#fpvw1wt)" height="48" style="stroke: #A80036; stroke-width: 1.5;" width="98" x="364" y="290"/><ellipse cx="379" cy="306" fill="#B4A7E5" rx="11" ry="11" style="stroke: #A80036; stroke-width: 1.0;"/><path d="M374.9219,301.7656 L374.9219,299.6094 L382.3125,299.6094 L382.3125,301.7656 L379.8438,301.7656 L379.8438,309.8438 L382.3125,309.8438 L382.3125,312 L374.9219,312 L374.9219,309.8438 L377.3906,309.8438 L377.3906,301.7656 L374.9219,301.7656 Z "/><text fill="#000000" font-family="sans-serif" font-size="12" font-style="italic" lengthAdjust="spacingAndGlyphs" textLength="66" x="393" y="310.1543">Repository</text><line style="stroke: #A80036; stroke-width: 1.5;" x1="365" x2="461" y1="322" y2="322"/><line style="stroke: #A80036; stroke-width: 1.5;" x1="365" x2="461" y1="330" y2="330"/><!--class org.itquasar.multiverse.jagrosk.persistence.jpa.JPAOneShotRepository--><rect fill="#FEFECE" filter="url(#fpvw1wt)" height="48" style="stroke: #A80036; stroke-width: 1.5;" width="171" x="190.5" y="59"/><ellipse cx="205.5" cy="75" fill="#ADD1B2" rx="11" ry="11" style="stroke: #A80036; stroke-width: 1.0;"/><path d="M208.4688,80.6406 Q207.8906,80.9375 207.25,81.0859 Q206.6094,81.2344 205.9063,81.2344 Q203.4063,81.2344 202.0859,79.5859 Q200.7656,77.9375 200.7656,74.8125 Q200.7656,71.6875 202.0859,70.0313 Q203.4063,68.375 205.9063,68.375 Q206.6094,68.375 207.2578,68.5313 Q207.9063,68.6875 208.4688,68.9844 L208.4688,71.7031 Q207.8438,71.125 207.25,70.8516 Q206.6563,70.5781 206.0313,70.5781 Q204.6875,70.5781 204,71.6484 Q203.3125,72.7188 203.3125,74.8125 Q203.3125,76.9063 204,77.9766 Q204.6875,79.0469 206.0313,79.0469 Q206.6563,79.0469 207.25,78.7734 Q207.8438,78.5 208.4688,77.9219 L208.4688,80.6406 Z "/><text fill="#000000" font-family="sans-serif" font-size="12" lengthAdjust="spacingAndGlyphs" textLength="139" x="219.5" y="79.1543">JPAOneShotRepository</text><line style="stroke: #A80036; stroke-width: 1.5;" x1="191.5" x2="360.5" y1="91" y2="91"/><line style="stroke: #A80036; stroke-width: 1.5;" x1="191.5" x2="360.5" y1="99" y2="99"/><!--class org.itquasar.multiverse.jagrosk.persistence.jpa.JPAPersistence--><rect fill="#FEFECE" filter="url(#fpvw1wt)" height="48" style="stroke: #A80036; stroke-width: 1.5;" width="125" x="678.5" y="59"/><ellipse cx="693.5" cy="75" fill="#ADD1B2" rx="11" ry="11" style="stroke: #A80036; stroke-width: 1.0;"/><path d="M696.4688,80.6406 Q695.8906,80.9375 695.25,81.0859 Q694.6094,81.2344 693.9063,81.2344 Q691.4063,81.2344 690.0859,79.5859 Q688.7656,77.9375 688.7656,74.8125 Q688.7656,71.6875 690.0859,70.0313 Q691.4063,68.375 693.9063,68.375 Q694.6094,68.375 695.2578,68.5313 Q695.9063,68.6875 696.4688,68.9844 L696.4688,71.7031 Q695.8438,71.125 695.25,70.8516 Q694.6563,70.5781 694.0313,70.5781 Q692.6875,70.5781 692,71.6484 Q691.3125,72.7188 691.3125,74.8125 Q691.3125,76.9063 692,77.9766 Q692.6875,79.0469 694.0313,79.0469 Q694.6563,79.0469 695.25,78.7734 Q695.8438,78.5 696.4688,77.9219 L696.4688,80.6406 Z "/><text fill="#000000" font-family="sans-serif" font-size="12" lengthAdjust="spacingAndGlyphs" textLength="93" x="707.5" y="79.1543">JPAPersistence</text><line style="stroke: #A80036; stroke-width: 1.5;" x1="679.5" x2="802.5" y1="91" y2="91"/><line style="stroke: #A80036; stroke-width: 1.5;" x1="679.5" x2="802.5" y1="99" y2="99"/><!--class org.itquasar.multiverse.jagrosk.persistence.jpa.JPAQuery--><rect fill="#FEFECE" filter="url(#fpvw1wt)" height="48" style="stroke: #A80036; stroke-width: 1.5;" width="87" x="396.5" y="59"/><ellipse cx="411.5" cy="75" fill="#ADD1B2" rx="11" ry="11" style="stroke: #A80036; stroke-width: 1.0;"/><path d="M414.4688,80.6406 Q413.8906,80.9375 413.25,81.0859 Q412.6094,81.2344 411.9063,81.2344 Q409.4063,81.2344 408.0859,79.5859 Q406.7656,77.9375 406.7656,74.8125 Q406.7656,71.6875 408.0859,70.0313 Q409.4063,68.375 411.9063,68.375 Q412.6094,68.375 413.2578,68.5313 Q413.9063,68.6875 414.4688,68.9844 L414.4688,71.7031 Q413.8438,71.125 413.25,70.8516 Q412.6563,70.5781 412.0313,70.5781 Q410.6875,70.5781 410,71.6484 Q409.3125,72.7188 409.3125,74.8125 Q409.3125,76.9063 410,77.9766 Q410.6875,79.0469 412.0313,79.0469 Q412.6563,79.0469 413.25,78.7734 Q413.8438,78.5 414.4688,77.9219 L414.4688,80.6406 Z "/><text fill="#000000" font-family="sans-serif" font-size="12" lengthAdjust="spacingAndGlyphs" textLength="55" x="425.5" y="79.1543">JPAQuery</text><line style="stroke: #A80036; stroke-width: 1.5;" x1="397.5" x2="482.5" y1="91" y2="91"/><line style="stroke: #A80036; stroke-width: 1.5;" x1="397.5" x2="482.5" y1="99" y2="99"/><!--class org.itquasar.multiverse.jagrosk.persistence.jpa.JPARepository--><rect fill="#FEFECE" filter="url(#fpvw1wt)" height="48" style="stroke: #A80036; stroke-width: 1.5;" width="117" x="38.5" y="59"/><ellipse cx="53.5" cy="75" fill="#ADD1B2" rx="11" ry="11" style="stroke: #A80036; stroke-width: 1.0;"/><path d="M56.4688,80.6406 Q55.8906,80.9375 55.25,81.0859 Q54.6094,81.2344 53.9063,81.2344 Q51.4063,81.2344 50.0859,79.5859 Q48.7656,77.9375 48.7656,74.8125 Q48.7656,71.6875 50.0859,70.0313 Q51.4063,68.375 53.9063,68.375 Q54.6094,68.375 55.2578,68.5313 Q55.9063,68.6875 56.4688,68.9844 L56.4688,71.7031 Q55.8438,71.125 55.25,70.8516 Q54.6563,70.5781 54.0313,70.5781 Q52.6875,70.5781 52,71.6484 Q51.3125,72.7188 51.3125,74.8125 Q51.3125,76.9063 52,77.9766 Q52.6875,79.0469 54.0313,79.0469 Q54.6563,79.0469 55.25,78.7734 Q55.8438,78.5 56.4688,77.9219 L56.4688,80.6406 Z "/><text fill="#000000" font-family="sans-serif" font-size="12" lengthAdjust="spacingAndGlyphs" textLength="85" x="67.5" y="79.1543">JPARepository</text><line style="stroke: #A80036; stroke-width: 1.5;" x1="39.5" x2="154.5" y1="91" y2="91"/><line style="stroke: #A80036; stroke-width: 1.5;" x1="39.5" x2="154.5" y1="99" y2="99"/><!--class org.itquasar.multiverse.jagrosk.persistence.jpa.JPATransaction--><rect fill="#FEFECE" filter="url(#fpvw1wt)" height="48" style="stroke: #A80036; stroke-width: 1.5;" width="125" x="518.5" y="59"/><ellipse cx="533.5" cy="75" fill="#ADD1B2" rx="11" ry="11" style="stroke: #A80036; stroke-width: 1.0;"/><path d="M536.4688,80.6406 Q535.8906,80.9375 535.25,81.0859 Q534.6094,81.2344 533.9063,81.2344 Q531.4063,81.2344 530.0859,79.5859 Q528.7656,77.9375 528.7656,74.8125 Q528.7656,71.6875 530.0859,70.0313 Q531.4063,68.375 533.9063,68.375 Q534.6094,68.375 535.2578,68.5313 Q535.9063,68.6875 536.4688,68.9844 L536.4688,71.7031 Q535.8438,71.125 535.25,70.8516 Q534.6563,70.5781 534.0313,70.5781 Q532.6875,70.5781 532,71.6484 Q531.3125,72.7188 531.3125,74.8125 Q531.3125,76.9063 532,77.9766 Q532.6875,79.0469 534.0313,79.0469 Q534.6563,79.0469 535.25,78.7734 Q535.8438,78.5 536.4688,77.9219 L536.4688,80.6406 Z "/><text fill="#000000" font-family="sans-serif" font-size="12" lengthAdjust="spacingAndGlyphs" textLength="93" x="547.5" y="79.1543">JPATransaction</text><line style="stroke: #A80036; stroke-width: 1.5;" x1="519.5" x2="642.5" y1="91" y2="91"/><line style="stroke: #A80036; stroke-width: 1.5;" x1="519.5" x2="642.5" y1="99" y2="99"/><!--class org.itquasar.multiverse.jagrosk.persistence.mem.MemoryPersistence--><rect fill="#FEFECE" filter="url(#fpvw1wt)" height="48" style="stroke: #A80036; stroke-width: 1.5;" width="154" x="1049" y="59"/><ellipse cx="1064" cy="75" fill="#ADD1B2" rx="11" ry="11" style="stroke: #A80036; stroke-width: 1.0;"/><path d="M1066.9688,80.6406 Q1066.3906,80.9375 1065.75,81.0859 Q1065.1094,81.2344 1064.4063,81.2344 Q1061.9063,81.2344 1060.5859,79.5859 Q1059.2656,77.9375 1059.2656,74.8125 Q1059.2656,71.6875 1060.5859,70.0313 Q1061.9063,68.375 1064.4063,68.375 Q1065.1094,68.375 1065.7578,68.5313 Q1066.4063,68.6875 1066.9688,68.9844 L1066.9688,71.7031 Q1066.3438,71.125 1065.75,70.8516 Q1065.1563,70.5781 1064.5313,70.5781 Q1063.1875,70.5781 1062.5,71.6484 Q1061.8125,72.7188 1061.8125,74.8125 Q1061.8125,76.9063 1062.5,77.9766 Q1063.1875,79.0469 1064.5313,79.0469 Q1065.1563,79.0469 1065.75,78.7734 Q1066.3438,78.5 1066.9688,77.9219 L1066.9688,80.6406 Z "/><text fill="#000000" font-family="sans-serif" font-size="12" lengthAdjust="spacingAndGlyphs" textLength="122" x="1078" y="79.1543">MemoryPersistence</text><line style="stroke: #A80036; stroke-width: 1.5;" x1="1050" x2="1202" y1="91" y2="91"/><line style="stroke: #A80036; stroke-width: 1.5;" x1="1050" x2="1202" y1="99" y2="99"/><!--class org.itquasar.multiverse.jagrosk.persistence.mem.MemoryRepository--><rect fill="#FEFECE" filter="url(#fpvw1wt)" height="48" style="stroke: #A80036; stroke-width: 1.5;" width="146" x="1238" y="59"/><ellipse cx="1253" cy="75" fill="#ADD1B2" rx="11" ry="11" style="stroke: #A80036; stroke-width: 1.0;"/><path d="M1255.9688,80.6406 Q1255.3906,80.9375 1254.75,81.0859 Q1254.1094,81.2344 1253.4063,81.2344 Q1250.9063,81.2344 1249.5859,79.5859 Q1248.2656,77.9375 1248.2656,74.8125 Q1248.2656,71.6875 1249.5859,70.0313 Q1250.9063,68.375 1253.4063,68.375 Q1254.1094,68.375 1254.7578,68.5313 Q1255.4063,68.6875 1255.9688,68.9844 L1255.9688,71.7031 Q1255.3438,71.125 1254.75,70.8516 Q1254.1563,70.5781 1253.5313,70.5781 Q1252.1875,70.5781 1251.5,71.6484 Q1250.8125,72.7188 1250.8125,74.8125 Q1250.8125,76.9063 1251.5,77.9766 Q1252.1875,79.0469 1253.5313,79.0469 Q1254.1563,79.0469 1254.75,78.7734 Q1255.3438,78.5 1255.9688,77.9219 L1255.9688,80.6406 Z "/><text fill="#000000" font-family="sans-serif" font-size="12" lengthAdjust="spacingAndGlyphs" textLength="114" x="1267" y="79.1543">MemoryRepository</text><line style="stroke: #A80036; stroke-width: 1.5;" x1="1239" x2="1383" y1="91" y2="91"/><line style="stroke: #A80036; stroke-width: 1.5;" x1="1239" x2="1383" y1="99" y2="99"/><!--class org.itquasar.multiverse.jagrosk.persistence.mem.MemoryTransaction--><rect fill="#FEFECE" filter="url(#fpvw1wt)" height="48" style="stroke: #A80036; stroke-width: 1.5;" width="154" x="860" y="59"/><ellipse cx="875" cy="75" fill="#ADD1B2" rx="11" ry="11" style="stroke: #A80036; stroke-width: 1.0;"/><path d="M877.9688,80.6406 Q877.3906,80.9375 876.75,81.0859 Q876.1094,81.2344 875.4063,81.2344 Q872.9063,81.2344 871.5859,79.5859 Q870.2656,77.9375 870.2656,74.8125 Q870.2656,71.6875 871.5859,70.0313 Q872.9063,68.375 875.4063,68.375 Q876.1094,68.375 876.7578,68.5313 Q877.4063,68.6875 877.9688,68.9844 L877.9688,71.7031 Q877.3438,71.125 876.75,70.8516 Q876.1563,70.5781 875.5313,70.5781 Q874.1875,70.5781 873.5,71.6484 Q872.8125,72.7188 872.8125,74.8125 Q872.8125,76.9063 873.5,77.9766 Q874.1875,79.0469 875.5313,79.0469 Q876.1563,79.0469 876.75,78.7734 Q877.3438,78.5 877.9688,77.9219 L877.9688,80.6406 Z "/><text fill="#000000" font-family="sans-serif" font-size="12" lengthAdjust="spacingAndGlyphs" textLength="122" x="889" y="79.1543">MemoryTransaction</text><line style="stroke: #A80036; stroke-width: 1.5;" x1="861" x2="1013" y1="91" y2="91"/><line style="stroke: #A80036; stroke-width: 1.5;" x1="861" x2="1013" y1="99" y2="99"/><path d="M1065.51,181.978 C1042.92,166.822 1011.1,148.151 980,139 C921.914,121.908 902.764,145.594 844,131 C824.645,126.193 804.453,117.814 787.128,109.449 " fill="none" style="stroke: #A80036; stroke-width: 1.0; stroke-dasharray: 7.0,7.0;"/><polygon fill="#A80036" points="782.32,107.093,788.642,114.645,786.81,109.293,792.162,107.461,782.32,107.093" style="stroke: #A80036; stroke-width: 1.0;"/><path d="M1102.6,181.63 C1107.37,161.728 1114.24,133.086 1119.3,111.969 " fill="none" style="stroke: #A80036; stroke-width: 1.0; stroke-dasharray: 7.0,7.0;"/><polygon fill="#A80036" points="1120.48,107.044,1114.4901,114.862,1119.3131,111.9059,1122.2692,116.729,1120.48,107.044" style="stroke: #A80036; stroke-width: 1.0;"/><path d="M413,230 C413,241.588 413,256.029 413,269.601 " fill="none" style="stroke: #A80036; stroke-width: 1.0;"/><polygon fill="none" points="420,269.678,413,289.6784,406,269.678,420,269.678" style="stroke: #A80036; stroke-width: 1.0;"/><path d="M302.091,107.044 C321.677,124.343 348.889,148.377 371.457,168.308 " fill="none" style="stroke: #A80036; stroke-width: 1.0;"/><polygon fill="none" points="376.183,163.143,386.539,181.63,366.915,173.637,376.183,163.143" style="stroke: #A80036; stroke-width: 1.0;"/><path d="M317.331,107.051 C335.661,116.157 357.836,125.697 379,131 C406.43,137.873 479.87,128.189 506,139 C526.217,147.364 544.72,163.51 558.289,177.738 " fill="none" style="stroke: #A80036; stroke-width: 1.0; stroke-dasharray: 7.0,7.0;"/><polygon fill="#A80036" points="561.983,181.692,558.7614,172.3849,558.5695,178.0385,552.9159,177.8466,561.983,181.692" style="stroke: #A80036; stroke-width: 1.0;"/><path d="M738.143,107.044 C735.698,126.766 732.168,155.243 729.544,176.414 " fill="none" style="stroke: #A80036; stroke-width: 1.0; stroke-dasharray: 7.0,7.0;"/><polygon fill="#A80036" points="728.897,181.63,733.9749,173.1911,729.5128,176.6681,726.0358,172.2059,728.897,181.63" style="stroke: #A80036; stroke-width: 1.0;"/><path d="M702.527,107.206 C687.658,116.606 670.715,127.861 656,139 C639.947,151.153 623.03,165.855 609.335,178.296 " fill="none" style="stroke: #A80036; stroke-width: 1.0; stroke-dasharray: 7.0,7.0;"/><polygon fill="#A80036" points="605.561,181.741,614.9052,178.6289,609.2543,178.3706,609.5126,172.7196,605.561,181.741" style="stroke: #A80036; stroke-width: 1.0;"/><path d="M768.996,107.044 C793.666,127.351 829.613,156.94 855.537,178.278 " fill="none" style="stroke: #A80036; stroke-width: 1.0; stroke-dasharray: 7.0,7.0;"/><polygon fill="#A80036" points="859.608,181.63,855.2031,172.8211,855.7482,178.4516,850.1177,178.9967,859.608,181.63" style="stroke: #A80036; stroke-width: 1.0;"/><path d="M710.01,107.195 C695.834,116.448 678.352,126.061 661,131 C642.721,136.203 332.281,125.405 319,139 C290.738,167.931 302.371,193.132 319,230 C329.486,253.247 350.057,272.5977 369.288,286.7505 " fill="none" style="stroke: #A80036; stroke-width: 1.0; stroke-dasharray: 7.0,7.0;"/><polygon fill="#A80036" points="373.624,289.8719,368.6571,281.3672,369.5662,286.9505,363.9829,287.8597,373.624,289.8719" style="stroke: #A80036; stroke-width: 1.0;"/><path d="M468.079,107.117 C479.854,116.884 493.652,128.425 506,139 C521.052,151.891 537.608,166.422 551.327,178.561 " fill="none" style="stroke: #A80036; stroke-width: 1.0; stroke-dasharray: 7.0,7.0;"/><polygon fill="#A80036" points="555.118,181.919,551.0301,172.9586,551.374,178.605,545.7276,178.949,555.118,181.919" style="stroke: #A80036; stroke-width: 1.0;"/><path d="M126.279,107.184 C139.716,116.434 156.345,126.049 173,131 C208.476,141.546 471.532,125.519 506,139 C526.523,147.027 545.149,163.344 558.705,177.744 " fill="none" style="stroke: #A80036; stroke-width: 1.0; stroke-dasharray: 7.0,7.0;"/><polygon fill="#A80036" points="562.392,181.746,559.2365,172.4163,559.0045,178.0684,553.3524,177.8364,562.392,181.746" style="stroke: #A80036; stroke-width: 1.0;"/><path d="M113.699,107.149 C137.187,138.388 182.666,194.238 232,230 C266.362,254.909 309.392,275.0147 344.874,289.1963 " fill="none" style="stroke: #A80036; stroke-width: 1.0;"/><polygon fill="none" points="347.565,282.7314,363.707,296.4583,342.528,295.7939,347.565,282.7314" style="stroke: #A80036; stroke-width: 1.0;"/><path d="M613.644,107.073 C626.747,116.639 641.835,128.044 655,139 C665.824,148.007 677.157,158.177 687.51,167.787 " fill="none" style="stroke: #A80036; stroke-width: 1.0;"/><polygon fill="none" points="692.534,162.903,702.278,181.72,682.927,173.087,692.534,162.903" style="stroke: #A80036; stroke-width: 1.0;"/><path d="M581,107.044 C581,126.766 581,155.243 581,176.414 " fill="none" style="stroke: #A80036; stroke-width: 1.0; stroke-dasharray: 7.0,7.0;"/><polygon fill="#A80036" points="581,181.63,585,172.63,581,176.63,577,172.63,581,181.63" style="stroke: #A80036; stroke-width: 1.0;"/><path d="M549.988,107.117 C535.807,116.355 518.329,125.979 501,131 C488.026,134.759 267.393,129.293 258,139 C229.876,168.065 237.221,195.302 258,230 C279.674,266.193 323.121,287.4976 358.514,299.4411 " fill="none" style="stroke: #A80036; stroke-width: 1.0; stroke-dasharray: 7.0,7.0;"/><polygon fill="#A80036" points="363.675,301.136,356.3723,294.5276,358.9246,299.576,353.8763,302.1283,363.675,301.136" style="stroke: #A80036; stroke-width: 1.0;"/><path d="M1088.61,107.105 C1071.67,116.341 1050.99,125.967 1031,131 C1005.665,137.381 820.114,128.946 796,139 C776.413,147.167 759.025,163.484 746.479,177.85 " fill="none" style="stroke: #A80036; stroke-width: 1.0; stroke-dasharray: 7.0,7.0;"/><polygon fill="#A80036" points="743.071,181.842,751.9571,177.5951,746.3178,178.0396,745.8733,172.4002,743.071,181.842" style="stroke: #A80036; stroke-width: 1.0;"/><path d="M1088.64,107.226 C1071.7,116.484 1051.02,126.094 1031,131 C990.522,140.922 694.833,123.871 656,139 C635.466,147 616.84,163.316 603.287,177.723 " fill="none" style="stroke: #A80036; stroke-width: 1.0; stroke-dasharray: 7.0,7.0;"/><polygon fill="#A80036" points="599.601,181.728,608.6391,177.8149,602.9871,178.0491,602.7529,172.3971,599.601,181.728" style="stroke: #A80036; stroke-width: 1.0;"/><path d="M1085.99,107.175 C1069.44,115.852 1049.77,125.04 1031,131 C1009.13,137.945 1001.23,130.299 980,139 C962.027,146.366 944.222,157.878 929.133,169.239 " fill="none" style="stroke: #A80036; stroke-width: 1.0;"/><polygon fill="none" points="933.395,174.794,913.387,181.772,924.676,163.84,933.395,174.794" style="stroke: #A80036; stroke-width: 1.0;"/><path d="M1162.48,107.02 C1179.31,116.362 1199.97,126.095 1220,131 C1232.84,134.146 1686.73,129.571 1696,139 C1724.36,167.838 1723.66,200.493 1696,230 C1653.33,275.5159 706.406,304.8414 467.401,311.5353 " fill="none" style="stroke: #A80036; stroke-width: 1.0; stroke-dasharray: 7.0,7.0;"/><polygon fill="#A80036" points="462.226,311.6797,471.3334,315.4287,467.2241,311.5411,471.1117,307.4318,462.226,311.6797" style="stroke: #A80036; stroke-width: 1.0;"/><path d="M1275.78,107.041 C1259.51,116.388 1239.49,126.117 1220,131 C1189.6,138.615 685.239,127.729 656,139 C635.438,146.926 616.812,163.242 603.265,177.667 " fill="none" style="stroke: #A80036; stroke-width: 1.0; stroke-dasharray: 7.0,7.0;"/><polygon fill="#A80036" points="599.581,181.677,608.6151,177.7547,602.9634,177.9947,602.7234,172.3429,599.581,181.677" style="stroke: #A80036; stroke-width: 1.0;"/><path d="M1384.07,88.371 C1498.53,95.973 1709.45,113.311 1732,139 C1758.68,169.394 1759.69,200.517 1732,230 C1688.85,275.9541 747.471,304.1821 482.084,311.2469 " fill="none" style="stroke: #A80036; stroke-width: 1.0;"/><polygon fill="none" points="482.219,318.2457,462.042,311.7742,481.851,304.2505,482.219,318.2457" style="stroke: #A80036; stroke-width: 1.0;"/><path d="M881.619,107.042 C862.227,114.898 840.241,123.569 820,131 C809.445,134.875 805.65,133.23 796,139 C783.19,146.659 770.793,157.013 760.083,167.247 " fill="none" style="stroke: #A80036; stroke-width: 1.0;"/><polygon fill="none" points="764.76,172.475,745.746,181.828,754.777,162.659,764.76,172.475" style="stroke: #A80036; stroke-width: 1.0;"/><path d="M890.041,107.033 C869.112,116.196 843.844,125.784 820,131 C784.355,138.797 689.814,125.29 656,139 C635.578,147.28 616.953,163.599 603.372,177.937 " fill="none" style="stroke: #A80036; stroke-width: 1.0; stroke-dasharray: 7.0,7.0;"/><polygon fill="#A80036" points="599.677,181.92,608.7293,178.0398,603.0765,178.2534,602.8628,172.6006,599.677,181.92" style="stroke: #A80036; stroke-width: 1.0;"/><path d="M973.469,107.058 C990.302,116.408 1010.96,126.136 1031,131 C1047.98,135.123 1647.72,126.566 1660,139 C1688.42,167.78 1687.63,200.467 1660,230 C1618.66,274.1844 702.264,304.3949 467.433,311.4294 " fill="none" style="stroke: #A80036; stroke-width: 1.0; stroke-dasharray: 7.0,7.0;"/><polygon fill="#A80036" points="462.347,311.5813,471.4629,315.3095,467.3447,311.4313,471.223,307.3131,462.347,311.5813" style="stroke: #A80036; stroke-width: 1.0;"/></g></svg>